<?xml version="1.0" encoding="UTF-8"?>
<!-- Generator: Adobe Illustrator 22.1.0, SVG Export Plug-In . SVG Version: 6.00 Build 0)  -->
<svg version="1.1" id="Capa_1" xmlns="http://www.w3.org/2000/svg" xmlns:xlink="http://www.w3.org/1999/xlink" x="0px" y="0px" viewBox="0 0 200 200" style="enable-background:new 0 0 200 200;" xml:space="preserve">
<style type="text/css">
	.st0{fill:#333333;}
	.st1{enable-background:new    ;}
</style>
<title>icono-titulos</title>
<path class="st0" d="M150.3,68.9c0.8,0,1.5-0.7,1.5-1.5V21.2c0-0.8-0.7-1.5-1.5-1.5h-4.8v-2.3c0-0.8-0.7-1.5-1.5-1.5c0,0,0,0,0,0  h-31.7c-3.8,0-7.4,1.6-10,4.3l-2.2,2.3l-2.2-2.3c-2.6-2.7-6.2-4.3-10-4.3H56.1c-0.8,0-1.5,0.7-1.5,1.5c0,0,0,0,0,0v2.4h-4.8  c-0.8,0-1.5,0.7-1.5,1.5v68.3c0,0.8,0.7,1.5,1.5,1.5h44.6v2.8c0.1,0.8,0.8,1.5,1.7,1.4c0.8-0.1,1.4-0.7,1.4-1.4V72.1  c1.7,0.2,3.4,0.2,5.1,0v30.4h-5.1V101c-0.1-0.8-0.8-1.5-1.7-1.4c-0.8,0.1-1.4,0.7-1.4,1.4v3c0,0.8,0.7,1.5,1.5,1.5h8.2  c0.8,0,1.5-0.7,1.5-1.5V91h44.6c0.8,0,1.5-0.7,1.5-1.5v-15c0-0.8-0.7-1.5-1.5-1.5c-0.8,0-1.5,0.7-1.5,1.5c0,0,0,0,0,0V88h-43.1v-3.3  h38.3c0.8,0,1.5-0.7,1.5-1.5V22.8h3.3v44.6C148.7,68.2,149.4,68.9,150.3,68.9C150.3,68.9,150.3,68.9,150.3,68.9z M57.6,77.3h30.2  c2.4,0,4.7,0.8,6.6,2.3v2H57.6V77.3z M94.4,76c-2-1.1-4.3-1.7-6.6-1.7H57.6V33.7c-0.1-0.8-0.8-1.5-1.7-1.4c-0.8,0.1-1.4,0.7-1.4,1.4  v49.5c0,0.8,0.7,1.5,1.5,1.5h38.3V88H51.3V22.8h3.3v3.7c-0.1,0.8,0.6,1.6,1.4,1.7c0.8,0.1,1.6-0.6,1.7-1.4c0-0.1,0-0.2,0-0.2v-7.6  h30.2c2.9,0,5.8,1.2,7.8,3.4l2.9,3.1v3c-12.1,1-21.2,11.5-20.2,23.7c0.7,9.2,7.2,17,16.1,19.5L94.4,76z M81.1,50.3  c0-10.4,8.5-18.9,18.9-18.9s18.9,8.5,18.9,18.9s-8.5,18.9-18.9,18.9C89.6,69.1,81.1,60.7,81.1,50.3z M122,50.3  c0-11.5-8.9-21.1-20.4-21.9v-3l2.9-3.1c2-2.1,4.9-3.4,7.8-3.4h30.2v55.4h-30.2c-2.3,0-4.6,0.6-6.6,1.7v-4.5  C115.3,68.9,122,60.2,122,50.3L122,50.3z M105.6,81.6v-2c1.9-1.5,4.2-2.3,6.6-2.3h30.2v4.3H105.6z"/>
<g class="st1">
	<path class="st0" d="M63.6,124c0.1,0,0.2,0.1,0.3,0.3l8.9,11.6c0-0.2,0-0.4,0-0.5c0-0.2,0-0.3,0-0.5v-10.9h1.8v15.4h-1.1   c-0.2,0-0.3,0-0.4-0.1s-0.2-0.2-0.3-0.3l-8.9-11.6c0,0.2,0,0.4,0,0.5c0,0.2,0,0.3,0,0.5v11h-1.8v-15.4h1.1   C63.4,123.9,63.5,123.9,63.6,124z"/>
</g>
<g class="st1">
	<path class="st0" d="M86.1,139.3h-0.9c-0.2,0-0.3,0-0.5-0.1s-0.2-0.2-0.2-0.4l-0.2-1c-0.3,0.3-0.6,0.5-0.8,0.7   c-0.3,0.2-0.6,0.4-0.9,0.5c-0.3,0.1-0.6,0.2-1,0.3c-0.3,0.1-0.7,0.1-1.1,0.1c-0.4,0-0.8-0.1-1.2-0.2c-0.4-0.1-0.7-0.3-1-0.5   c-0.3-0.2-0.5-0.5-0.7-0.9c-0.2-0.4-0.2-0.8-0.2-1.3c0-0.4,0.1-0.8,0.4-1.2c0.2-0.4,0.6-0.8,1.1-1.1s1.2-0.6,2.1-0.8   s1.9-0.3,3.1-0.3v-0.9c0-0.9-0.2-1.5-0.5-1.9c-0.4-0.4-0.9-0.7-1.6-0.7c-0.5,0-0.9,0.1-1.2,0.2s-0.6,0.3-0.8,0.4   c-0.2,0.1-0.4,0.3-0.6,0.4c-0.2,0.1-0.3,0.2-0.5,0.2c-0.1,0-0.2,0-0.3-0.1c-0.1-0.1-0.2-0.2-0.2-0.3l-0.3-0.6   c0.6-0.6,1.3-1,1.9-1.3s1.5-0.4,2.3-0.4c0.6,0,1.2,0.1,1.6,0.3c0.5,0.2,0.9,0.5,1.2,0.8c0.3,0.4,0.6,0.8,0.7,1.3   c0.2,0.5,0.2,1.1,0.2,1.7V139.3z M81.2,138.2c0.3,0,0.6,0,0.9-0.1s0.5-0.2,0.8-0.3c0.2-0.1,0.5-0.3,0.7-0.5   c0.2-0.2,0.4-0.4,0.7-0.6v-2.3c-0.9,0-1.6,0.1-2.2,0.2c-0.6,0.1-1.1,0.3-1.5,0.4c-0.4,0.2-0.7,0.4-0.8,0.6   c-0.2,0.2-0.3,0.5-0.3,0.8c0,0.3,0,0.5,0.1,0.7c0.1,0.2,0.2,0.4,0.4,0.5c0.2,0.1,0.3,0.2,0.6,0.3C80.7,138.1,80.9,138.2,81.2,138.2   z"/>
</g>
<g class="st1">
	<path class="st0" d="M87.3,128.4h1.6c0.2,0,0.3,0,0.4,0.1s0.2,0.2,0.2,0.3l2.8,7c0.1,0.3,0.2,0.5,0.2,0.8c0.1,0.3,0.1,0.5,0.2,0.8   c0.1-0.3,0.1-0.5,0.2-0.8c0.1-0.3,0.1-0.5,0.2-0.8l2.8-7c0-0.1,0.1-0.2,0.2-0.3c0.1-0.1,0.2-0.1,0.4-0.1h1.5l-4.4,10.9h-1.7   L87.3,128.4z"/>
</g>
<g class="st1">
	<path class="st0" d="M103.7,128.3c0.7,0,1.3,0.1,1.8,0.3s1,0.5,1.4,0.9c0.4,0.4,0.7,0.9,0.9,1.5c0.2,0.6,0.3,1.3,0.3,2.1   c0,0.3,0,0.5-0.1,0.6s-0.2,0.2-0.4,0.2h-7.3c0,0.7,0.1,1.3,0.3,1.8c0.2,0.5,0.4,0.9,0.7,1.3c0.3,0.3,0.7,0.6,1.1,0.8   s0.9,0.3,1.4,0.3c0.5,0,0.9-0.1,1.2-0.2c0.3-0.1,0.6-0.2,0.9-0.4c0.3-0.1,0.5-0.2,0.6-0.4c0.2-0.1,0.3-0.2,0.4-0.2   c0.2,0,0.3,0.1,0.4,0.2l0.5,0.7c-0.2,0.3-0.5,0.5-0.9,0.7s-0.7,0.4-1.1,0.5c-0.4,0.1-0.8,0.2-1.2,0.3c-0.4,0.1-0.8,0.1-1.2,0.1   c-0.8,0-1.4-0.1-2.1-0.4c-0.6-0.3-1.2-0.6-1.6-1.1c-0.5-0.5-0.8-1.1-1.1-1.8s-0.4-1.6-0.4-2.5c0-0.8,0.1-1.5,0.4-2.1   c0.2-0.7,0.6-1.2,1-1.7c0.4-0.5,1-0.9,1.6-1.1C102.2,128.4,103,128.3,103.7,128.3z M103.8,129.7c-0.9,0-1.7,0.3-2.2,0.8   c-0.5,0.5-0.9,1.3-1,2.2h5.9c0-0.4-0.1-0.9-0.2-1.2c-0.1-0.4-0.3-0.7-0.5-1c-0.2-0.3-0.5-0.5-0.9-0.6S104.2,129.7,103.8,129.7z"/>
	<path class="st0" d="M114.4,128.2c0.5,0,0.9,0.1,1.3,0.2c0.4,0.1,0.8,0.3,1.1,0.5h3v0.7c0,0.2-0.2,0.4-0.5,0.5l-1.2,0.2   c0.2,0.5,0.4,1,0.4,1.6c0,0.5-0.1,1-0.3,1.4c-0.2,0.4-0.5,0.8-0.9,1.1s-0.8,0.5-1.3,0.7s-1,0.2-1.6,0.2c-0.5,0-1-0.1-1.4-0.2   c-0.2,0.1-0.4,0.3-0.5,0.5c-0.1,0.2-0.2,0.3-0.2,0.5c0,0.3,0.1,0.5,0.3,0.6c0.2,0.1,0.5,0.2,0.8,0.3s0.7,0.1,1.2,0.1   c0.4,0,0.9,0,1.3,0s0.9,0,1.3,0.1s0.8,0.2,1.2,0.4s0.6,0.4,0.8,0.8c0.2,0.3,0.3,0.7,0.3,1.2c0,0.5-0.1,0.9-0.3,1.4   c-0.2,0.4-0.6,0.8-1,1.2c-0.4,0.3-1,0.6-1.6,0.8c-0.6,0.2-1.3,0.3-2.1,0.3c-0.8,0-1.5-0.1-2.1-0.2c-0.6-0.2-1.1-0.4-1.5-0.6   c-0.4-0.3-0.7-0.6-0.9-0.9s-0.3-0.7-0.3-1.1c0-0.5,0.2-1,0.5-1.4c0.3-0.4,0.8-0.7,1.4-0.9c-0.3-0.1-0.6-0.3-0.7-0.6s-0.3-0.6-0.3-1   c0-0.2,0-0.3,0.1-0.5c0.1-0.2,0.1-0.3,0.3-0.5c0.1-0.2,0.3-0.3,0.4-0.5c0.2-0.2,0.4-0.3,0.6-0.4c-0.5-0.3-1-0.7-1.3-1.2   c-0.3-0.5-0.5-1.1-0.5-1.7c0-0.5,0.1-1,0.3-1.4c0.2-0.4,0.5-0.8,0.9-1.1c0.4-0.3,0.8-0.5,1.3-0.7   C113.2,128.3,113.8,128.2,114.4,128.2z M117.8,139.9c0-0.3-0.1-0.5-0.2-0.7s-0.4-0.3-0.6-0.4c-0.3-0.1-0.6-0.2-0.9-0.2   c-0.3,0-0.7-0.1-1.1-0.1s-0.8,0-1.1,0s-0.8,0-1.1-0.1c-0.4,0.2-0.7,0.4-1,0.7s-0.4,0.6-0.4,1c0,0.2,0.1,0.5,0.2,0.7   c0.1,0.2,0.3,0.4,0.6,0.5c0.3,0.2,0.6,0.3,1,0.4c0.4,0.1,0.9,0.1,1.4,0.1c0.5,0,1,0,1.4-0.1c0.4-0.1,0.8-0.2,1-0.4s0.5-0.4,0.7-0.6   C117.7,140.4,117.8,140.2,117.8,139.9z M114.4,134c0.4,0,0.7-0.1,1-0.2s0.5-0.3,0.7-0.5c0.2-0.2,0.4-0.4,0.5-0.7   c0.1-0.3,0.2-0.6,0.2-0.9c0-0.7-0.2-1.2-0.6-1.6c-0.4-0.4-1-0.6-1.8-0.6c-0.8,0-1.4,0.2-1.8,0.6s-0.6,0.9-0.6,1.6   c0,0.3,0.1,0.6,0.2,0.9c0.1,0.3,0.3,0.5,0.5,0.7c0.2,0.2,0.4,0.3,0.7,0.5S114,134,114.4,134z"/>
	<path class="st0" d="M129.7,139.3h-0.9c-0.2,0-0.3,0-0.5-0.1c-0.1-0.1-0.2-0.2-0.2-0.4l-0.2-1c-0.3,0.3-0.6,0.5-0.8,0.7   c-0.3,0.2-0.6,0.4-0.9,0.5s-0.6,0.2-1,0.3c-0.3,0.1-0.7,0.1-1.1,0.1c-0.4,0-0.8-0.1-1.2-0.2c-0.4-0.1-0.7-0.3-1-0.5   c-0.3-0.2-0.5-0.5-0.7-0.9c-0.2-0.4-0.2-0.8-0.2-1.3c0-0.4,0.1-0.8,0.4-1.2c0.2-0.4,0.6-0.8,1.1-1.1s1.2-0.6,2.1-0.8   c0.9-0.2,1.9-0.3,3.1-0.3v-0.9c0-0.9-0.2-1.5-0.5-1.9c-0.4-0.4-0.9-0.7-1.6-0.7c-0.5,0-0.9,0.1-1.2,0.2s-0.6,0.3-0.8,0.4   s-0.4,0.3-0.6,0.4c-0.2,0.1-0.3,0.2-0.5,0.2c-0.1,0-0.2,0-0.3-0.1s-0.2-0.2-0.2-0.3l-0.3-0.6c0.6-0.6,1.3-1,1.9-1.3   s1.5-0.4,2.3-0.4c0.6,0,1.2,0.1,1.6,0.3c0.5,0.2,0.9,0.5,1.2,0.8c0.3,0.4,0.6,0.8,0.7,1.3c0.2,0.5,0.2,1.1,0.2,1.7V139.3z    M124.8,138.2c0.3,0,0.6,0,0.9-0.1c0.3-0.1,0.5-0.2,0.8-0.3c0.2-0.1,0.5-0.3,0.7-0.5c0.2-0.2,0.4-0.4,0.7-0.6v-2.3   c-0.9,0-1.6,0.1-2.2,0.2c-0.6,0.1-1.1,0.3-1.5,0.4c-0.4,0.2-0.7,0.4-0.8,0.6c-0.2,0.2-0.3,0.5-0.3,0.8c0,0.3,0,0.5,0.1,0.7   c0.1,0.2,0.2,0.4,0.4,0.5s0.3,0.2,0.6,0.3C124.3,138.1,124.5,138.2,124.8,138.2z"/>
	<path class="st0" d="M132.6,139.3v-10.9h1.1c0.2,0,0.4,0,0.4,0.1c0.1,0.1,0.1,0.2,0.2,0.4l0.1,1.7c0.4-0.8,0.8-1.4,1.4-1.8   c0.5-0.4,1.2-0.6,1.9-0.6c0.3,0,0.6,0,0.8,0.1s0.5,0.2,0.7,0.3l-0.2,1.4c0,0.2-0.2,0.3-0.3,0.3c-0.1,0-0.3,0-0.5-0.1   s-0.5-0.1-0.9-0.1c-0.7,0-1.2,0.2-1.7,0.6s-0.8,1-1.1,1.7v6.9H132.6z"/>
</g>
<g class="st1">
	<path class="st0" d="M53.1,168.9v-14.6h1.1c0.3,0,0.4,0.1,0.5,0.4l0.2,1.3c0.5-0.6,1-1,1.6-1.4c0.6-0.3,1.3-0.5,2.1-0.5   c0.6,0,1.2,0.1,1.7,0.4c0.5,0.2,0.9,0.6,1.3,1.1c0.4,0.5,0.6,1.1,0.8,1.7s0.3,1.5,0.3,2.4c0,0.8-0.1,1.6-0.3,2.2   c-0.2,0.7-0.5,1.3-0.9,1.8s-0.9,0.9-1.5,1.2c-0.6,0.3-1.2,0.4-2,0.4c-0.7,0-1.3-0.1-1.7-0.3c-0.5-0.2-0.9-0.5-1.3-0.9v4.8H53.1z    M57.9,155.6c-0.6,0-1.2,0.1-1.6,0.4c-0.5,0.3-0.9,0.7-1.3,1.2v5.3c0.4,0.5,0.7,0.8,1.2,1c0.4,0.2,0.9,0.3,1.4,0.3   c1,0,1.8-0.4,2.3-1.1s0.8-1.8,0.8-3.1c0-0.7-0.1-1.3-0.2-1.8s-0.3-0.9-0.5-1.3s-0.5-0.6-0.9-0.7C58.7,155.7,58.3,155.6,57.9,155.6z   "/>
	<path class="st0" d="M69.3,154.1c0.8,0,1.5,0.1,2.2,0.4c0.6,0.3,1.2,0.6,1.6,1.1c0.4,0.5,0.8,1.1,1,1.8c0.2,0.7,0.4,1.5,0.4,2.3   c0,0.9-0.1,1.6-0.4,2.3c-0.2,0.7-0.6,1.3-1,1.8c-0.4,0.5-1,0.9-1.6,1.1c-0.6,0.3-1.4,0.4-2.2,0.4s-1.5-0.1-2.2-0.4   c-0.6-0.3-1.2-0.6-1.6-1.1c-0.5-0.5-0.8-1.1-1-1.8c-0.2-0.7-0.4-1.5-0.4-2.3c0-0.9,0.1-1.6,0.4-2.3c0.2-0.7,0.6-1.3,1-1.8   c0.5-0.5,1-0.9,1.6-1.1C67.8,154.2,68.6,154.1,69.3,154.1z M69.3,163.8c1.1,0,1.9-0.4,2.4-1.1c0.5-0.7,0.8-1.7,0.8-3   c0-1.3-0.3-2.3-0.8-3c-0.5-0.7-1.3-1.1-2.4-1.1c-0.5,0-1,0.1-1.4,0.3s-0.7,0.5-1,0.8c-0.3,0.4-0.5,0.8-0.6,1.3s-0.2,1.1-0.2,1.7   c0,0.6,0.1,1.2,0.2,1.7s0.3,0.9,0.6,1.3c0.3,0.3,0.6,0.6,1,0.8C68.3,163.7,68.8,163.8,69.3,163.8z"/>
	<path class="st0" d="M76.9,165.2v-10.9H78c0.2,0,0.4,0,0.4,0.1c0.1,0.1,0.1,0.2,0.2,0.4l0.1,1.7c0.4-0.8,0.8-1.4,1.4-1.8   c0.5-0.4,1.2-0.6,1.9-0.6c0.3,0,0.6,0,0.8,0.1c0.2,0.1,0.5,0.2,0.7,0.3l-0.2,1.4c-0.1,0.2-0.2,0.3-0.3,0.3c-0.1,0-0.3,0-0.5-0.1   s-0.5-0.1-0.9-0.1c-0.7,0-1.2,0.2-1.7,0.6c-0.4,0.4-0.8,1-1.1,1.7v6.9H76.9z"/>
	<path class="st0" d="M93,165.3c-0.9,0-1.5-0.2-2-0.7s-0.7-1.2-0.7-2.1v-6.7H89c-0.1,0-0.2,0-0.3-0.1c-0.1-0.1-0.1-0.2-0.1-0.3v-0.8   l1.8-0.2l0.4-3.4c0-0.1,0.1-0.2,0.1-0.3c0.1-0.1,0.2-0.1,0.3-0.1h1v3.8h3.1v1.4h-3.1v6.5c0,0.5,0.1,0.8,0.3,1   c0.2,0.2,0.5,0.3,0.9,0.3c0.2,0,0.4,0,0.5-0.1s0.3-0.1,0.4-0.2c0.1-0.1,0.2-0.1,0.3-0.2c0.1-0.1,0.1-0.1,0.2-0.1   c0.1,0,0.2,0.1,0.3,0.2l0.6,0.9c-0.3,0.3-0.7,0.6-1.2,0.7C94,165.2,93.5,165.3,93,165.3z"/>
	<path class="st0" d="M102.1,149.6l-2.5,2.8c-0.1,0.1-0.2,0.2-0.3,0.2c-0.1,0-0.2,0.1-0.4,0.1h-1.1l1.6-2.6c0.1-0.2,0.2-0.3,0.3-0.4   c0.1-0.1,0.3-0.1,0.5-0.1H102.1z M99.9,154.3v10.9H98v-10.9H99.9z"/>
	<path class="st0" d="M106.6,165.3c-0.9,0-1.5-0.2-2-0.7s-0.7-1.2-0.7-2.1v-6.7h-1.3c-0.1,0-0.2,0-0.3-0.1c-0.1-0.1-0.1-0.2-0.1-0.3   v-0.8l1.8-0.2l0.4-3.4c0-0.1,0.1-0.2,0.1-0.3c0.1-0.1,0.2-0.1,0.3-0.1h1v3.8h3.1v1.4h-3.1v6.5c0,0.5,0.1,0.8,0.3,1   c0.2,0.2,0.5,0.3,0.9,0.3c0.2,0,0.4,0,0.5-0.1c0.1-0.1,0.3-0.1,0.4-0.2c0.1-0.1,0.2-0.1,0.3-0.2c0.1-0.1,0.1-0.1,0.2-0.1   c0.1,0,0.2,0.1,0.3,0.2l0.6,0.9c-0.3,0.3-0.7,0.6-1.2,0.7S107.1,165.3,106.6,165.3z"/>
	<path class="st0" d="M113,154.3v7c0,0.8,0.2,1.5,0.6,1.9c0.4,0.5,1,0.7,1.7,0.7c0.6,0,1.1-0.1,1.6-0.4s1-0.6,1.4-1.1v-8h1.9v10.9   H119c-0.3,0-0.4-0.1-0.5-0.4l-0.2-1.2c-0.5,0.5-1,0.9-1.6,1.3c-0.6,0.3-1.3,0.5-2,0.5c-0.6,0-1.1-0.1-1.6-0.3   c-0.5-0.2-0.8-0.5-1.1-0.8c-0.3-0.4-0.5-0.8-0.7-1.3s-0.2-1.1-0.2-1.7v-7H113z"/>
	<path class="st0" d="M125.4,149.3v15.9h-1.9v-15.9H125.4z"/>
	<path class="st0" d="M133.2,154.1c0.8,0,1.5,0.1,2.2,0.4s1.2,0.6,1.6,1.1c0.4,0.5,0.8,1.1,1,1.8c0.2,0.7,0.4,1.5,0.4,2.3   c0,0.9-0.1,1.6-0.4,2.3c-0.2,0.7-0.6,1.3-1,1.8s-1,0.9-1.6,1.1s-1.4,0.4-2.2,0.4c-0.8,0-1.5-0.1-2.2-0.4c-0.6-0.3-1.2-0.6-1.6-1.1   c-0.5-0.5-0.8-1.1-1-1.8c-0.2-0.7-0.4-1.5-0.4-2.3c0-0.9,0.1-1.6,0.4-2.3c0.2-0.7,0.6-1.3,1-1.8c0.5-0.5,1-0.9,1.6-1.1   C131.7,154.2,132.4,154.1,133.2,154.1z M133.2,163.8c1.1,0,1.9-0.4,2.4-1.1c0.5-0.7,0.8-1.7,0.8-3c0-1.3-0.3-2.3-0.8-3   c-0.5-0.7-1.3-1.1-2.4-1.1c-0.5,0-1,0.1-1.4,0.3c-0.4,0.2-0.7,0.5-1,0.8s-0.5,0.8-0.6,1.3s-0.2,1.1-0.2,1.7c0,0.6,0.1,1.2,0.2,1.7   s0.3,0.9,0.6,1.3c0.3,0.3,0.6,0.6,1,0.8C132.2,163.7,132.7,163.8,133.2,163.8z"/>
	<path class="st0" d="M147,156.1c-0.1,0.2-0.2,0.2-0.4,0.2c-0.1,0-0.2,0-0.4-0.1c-0.1-0.1-0.3-0.2-0.5-0.3c-0.2-0.1-0.4-0.2-0.7-0.3   c-0.3-0.1-0.6-0.1-1-0.1c-0.3,0-0.6,0-0.9,0.1c-0.3,0.1-0.5,0.2-0.7,0.3c-0.2,0.1-0.3,0.3-0.4,0.5c-0.1,0.2-0.1,0.4-0.1,0.6   c0,0.3,0.1,0.5,0.2,0.7c0.2,0.2,0.4,0.3,0.6,0.5c0.3,0.1,0.6,0.3,0.9,0.4c0.3,0.1,0.7,0.2,1,0.3s0.7,0.3,1,0.4   c0.3,0.1,0.6,0.3,0.9,0.5c0.3,0.2,0.5,0.5,0.6,0.8c0.2,0.3,0.2,0.7,0.2,1.1c0,0.5-0.1,1-0.3,1.4c-0.2,0.4-0.4,0.8-0.8,1.1   c-0.4,0.3-0.8,0.6-1.3,0.7c-0.5,0.2-1.1,0.3-1.8,0.3c-0.8,0-1.4-0.1-2.1-0.4c-0.6-0.2-1.1-0.6-1.6-1l0.5-0.7   c0.1-0.1,0.1-0.2,0.2-0.2c0.1,0,0.2-0.1,0.3-0.1s0.3,0.1,0.4,0.2s0.3,0.2,0.5,0.3c0.2,0.1,0.5,0.2,0.7,0.3s0.7,0.2,1.1,0.2   c0.4,0,0.7,0,1-0.1c0.3-0.1,0.5-0.2,0.7-0.4c0.2-0.2,0.3-0.4,0.4-0.6s0.1-0.4,0.1-0.7c0-0.3-0.1-0.5-0.2-0.7   c-0.2-0.2-0.4-0.4-0.6-0.5c-0.3-0.1-0.6-0.3-0.9-0.4c-0.3-0.1-0.7-0.2-1-0.3c-0.4-0.1-0.7-0.2-1-0.4s-0.6-0.3-0.9-0.6   s-0.5-0.5-0.6-0.8c-0.2-0.3-0.2-0.7-0.2-1.2c0-0.4,0.1-0.8,0.3-1.2s0.4-0.7,0.8-1c0.3-0.3,0.7-0.5,1.2-0.7c0.5-0.2,1-0.3,1.6-0.3   c0.7,0,1.4,0.1,1.9,0.3c0.6,0.2,1.1,0.5,1.5,0.9L147,156.1z"/>
</g>
</svg>