<?xml version="1.0" encoding="UTF-8"?>
<!-- Generator: Adobe Illustrator 22.1.0, SVG Export Plug-In . SVG Version: 6.00 Build 0)  -->
<svg version="1.1" id="Capa_1" xmlns="http://www.w3.org/2000/svg" xmlns:xlink="http://www.w3.org/1999/xlink" x="0px" y="0px" viewBox="0 0 200 200" style="enable-background:new 0 0 200 200;" xml:space="preserve">
<style type="text/css">
	.st0{fill:#333333;}
	.st1{enable-background:new    ;}
</style>
<title>icono-autores</title>
<path class="st0" d="M104.8,32.5c0-2.6-2.1-4.8-4.8-4.8c-2.6,0-4.8,2.1-4.8,4.8c0,2.6,2.1,4.8,4.8,4.8c0,0,0,0,0,0  C102.6,37.3,104.8,35.2,104.8,32.5z M100,34.7c-1.2,0-2.1-0.9-2.1-2.1s0.9-2.1,2.1-2.1c1.2,0,2.1,0.9,2.1,2.1c0,0,0,0,0,0  C102.1,33.7,101.2,34.7,100,34.7z"/>
<path class="st0" d="M126.1,85.2l-2.8-0.8c-0.7-0.2-1.4,0.3-1.6,1c-0.1,0.7,0.2,1.3,0.9,1.6l2.8,0.8c5.5,1.6,9.4,6.6,9.4,12.4v2.8  h-11.5v-5.2c0-0.7-0.6-1.3-1.3-1.3s-1.3,0.6-1.3,1.3v5.2H79.4v-5.2c0-0.7-0.6-1.3-1.3-1.3s-1.3,0.6-1.3,1.3v5.2H65.2v-2.8  c0-5.8,3.9-10.8,9.4-12.4l2.8-0.8c0.7-0.2,1.1-1,0.8-1.7c-0.2-0.6-0.9-1-1.6-0.9l-2.8,0.8c-6.7,1.9-11.3,8-11.3,14.9v4.1  c0,0.7,0.6,1.3,1.3,1.3c0,0,0,0,0,0h72.2c0.7,0,1.3-0.6,1.3-1.3c0,0,0,0,0,0v-4.1C137.4,93.1,132.8,87,126.1,85.2z"/>
<path class="st0" d="M77.4,53.7c-1,0.9-1.6,2.2-1.6,3.6v2.5c0,2.7,2.2,4.9,4.9,4.9h1.8c1.2,5.4,4.8,9.9,9.8,12.2v4h-2.9  c-0.1,0-0.3,0-0.4,0.1l-6.3,1.8c-0.7,0.2-1.1,0.9-1,1.6c0.1,0.6,0.7,1,1.3,1c0.1,0,0.2,0,0.4,0l3.4-0.9c1.2,7.3,8,12.2,15.3,11.1  c5.7-0.9,10.1-5.4,11.1-11.1l3.4,0.9c0.1,0,0.2,0,0.4,0c0.7,0,1.3-0.6,1.3-1.3c0-0.6-0.4-1.2-1-1.3L111,81c-0.1,0-0.2,0-0.3,0h-3v-4  c5-2.4,8.6-6.9,9.8-12.2h1.8c2.7,0,4.9-2.2,4.9-4.9v-2.6c0-1.4-0.6-2.7-1.6-3.6v-5.8c0-0.7-0.6-1.3-1.3-1.3h-16.4v-3.4  c0.7-0.3,1.4-0.7,2.1-1.2l4.1,2.4c0.3,0.2,0.7,0.2,1,0.1c0.3-0.1,0.6-0.3,0.8-0.6l3.5-6c0.2-0.3,0.2-0.7,0.1-1  c-0.1-0.3-0.3-0.6-0.6-0.8l-4.1-2.4c0-0.4,0.1-0.8,0.1-1.2s0-0.8-0.1-1.2l4.1-2.3c0.3-0.2,0.5-0.5,0.6-0.8c0.1-0.3,0-0.7-0.1-1  l-3.5-6c-0.2-0.3-0.5-0.5-0.8-0.6c-0.3-0.1-0.7,0-1,0.1l-4.1,2.4c-0.6-0.5-1.3-0.9-2.1-1.2v-4.7c0-0.7-0.6-1.3-1.3-1.3h-6.9  c-0.7,0-1.3,0.6-1.3,1.3v4.7c-0.7,0.3-1.4,0.7-2.1,1.2l-4.1-2.4c-0.3-0.2-0.7-0.2-1-0.1c-0.3,0.1-0.6,0.3-0.8,0.6l-3.5,6  c-0.2,0.3-0.2,0.7-0.1,1c0.1,0.3,0.3,0.6,0.6,0.8l4.1,2.4c0,0.4-0.1,0.8-0.1,1.2c0,0.4,0,0.8,0.1,1.2l-4.1,2.4  c-0.3,0.2-0.5,0.5-0.6,0.8c-0.1,0.3,0,0.7,0.1,1l3.5,6c0.2,0.3,0.5,0.5,0.8,0.6c0.3,0.1,0.7,0,1-0.1l4.1-2.4  c0.6,0.5,1.3,0.9,2.1,1.2v3.4h-2.8c-0.7,0-1.3,0.6-1.3,1.3c0,0.7,0.6,1.3,1.3,1.3c0,0,0,0,0,0h22.9v11.4  c-0.2,8.5-7.2,15.1-15.7,14.9c-8.1-0.2-14.7-6.8-14.9-14.9V49.3h1.6c0.7,0,1.3-0.6,1.3-1.3c0-0.7-0.6-1.3-1.3-1.3h-7.5  c-0.7,0-1.3,0.6-1.3,1.3v0V53.7z M97.9,46.6v-4.3c0-0.6-0.3-1.1-0.9-1.3c-1-0.4-2-0.9-2.9-1.7c-0.4-0.4-1-0.4-1.5-0.1l-3.7,2.2  l-2.1-3.7l3.7-2.1c0.5-0.3,0.7-0.8,0.6-1.4c-0.2-1.1-0.2-2.2,0-3.3c0.1-0.6-0.2-1.1-0.6-1.4l-3.7-2.1l2.1-3.7l3.7,2.1  c0.5,0.3,1.1,0.2,1.5-0.1C95,24.9,96,24.4,97,24c0.5-0.2,0.9-0.7,0.9-1.3v-4.3h4.3v4.3c0,0.6,0.3,1,0.8,1.3c1,0.4,2,0.9,2.9,1.7  c0.4,0.4,1,0.4,1.5,0.1l3.7-2.1l2.1,3.7l-3.7,2.1c-0.5,0.3-0.7,0.8-0.6,1.4c0.2,1.1,0.2,2.2,0,3.3c-0.1,0.6,0.2,1.1,0.6,1.4l3.7,2.1  l-2.1,3.7l-3.7-2.2c-0.5-0.3-1.1-0.2-1.5,0.1c-0.8,0.7-1.8,1.3-2.9,1.7c-0.5,0.2-0.9,0.7-0.9,1.3v4.3H97.9z M121.5,59.8  c0,1.2-1,2.2-2.2,2.2h-1.4c0-0.4,0-0.9,0-1.3v-5.6h1.3c1.2,0,2.2,1,2.2,2.2L121.5,59.8z M119.9,52.5c-0.2,0-0.4,0-0.6,0H118v-3.2  h1.9L119.9,52.5L119.9,52.5z M110.6,83.6c-0.8,5.9-6.1,10-12,9.2c-4.8-0.6-8.6-4.4-9.2-9.2h0.2h2.9c0.7,4.2,4.7,7,8.9,6.3  c3.2-0.5,5.7-3.1,6.3-6.3h2.8H110.6z M105,77.9v4.3c0,2.8-2.3,5-5,5s-5-2.3-5-5v-4.3C98.2,78.9,101.7,78.9,105,77.9z M80.7,62  c-1.2,0-2.2-1-2.2-2.2v-2.5c0-1.2,1-2.2,2.2-2.2H82v5.6c0,0.4,0,0.9,0,1.3H80.7z M82,49.3v3.2h-1.3c-0.2,0-0.4,0-0.6,0v-3.2H82z"/>
<path class="st0" d="M123.3,44.2c0.2,0.1,0.3,0.1,0.5,0.1c0.5,0,1-0.3,1.2-0.8c3.1-7,3.1-15,0-22c-0.2-0.7-1-1.1-1.7-0.8  c-0.7,0.2-1.1,1-0.8,1.7c0,0.1,0.1,0.1,0.1,0.2c2.8,6.3,2.8,13.5,0,19.8C122.3,43.1,122.6,43.9,123.3,44.2z"/>
<path class="st0" d="M118.4,42.1c0.2,0.1,0.3,0.1,0.5,0.1c0.5,0,1-0.3,1.2-0.8c2.5-5.6,2.5-12.1,0-17.7c-0.3-0.7-1.1-0.9-1.8-0.6  c-0.6,0.3-0.9,1-0.6,1.6c2.2,5,2.2,10.6,0,15.6C117.5,41,117.8,41.8,118.4,42.1C118.4,42.1,118.4,42.1,118.4,42.1z"/>
<path class="st0" d="M76.2,44.3c0.2,0,0.4,0,0.5-0.1c0.7-0.3,1-1.1,0.7-1.8c-2.8-6.3-2.8-13.5,0-19.8c0.4-0.6,0.3-1.4-0.3-1.8  c-0.6-0.4-1.4-0.3-1.8,0.3c-0.1,0.1-0.2,0.3-0.2,0.4c-3.1,7-3.1,15,0,22C75.2,44,75.7,44.3,76.2,44.3z"/>
<path class="st0" d="M81,42.2c0.2,0,0.4,0,0.5-0.1c0.7-0.3,1-1.1,0.7-1.7c0,0,0,0,0,0c-2.2-5-2.2-10.6,0-15.5  c0.3-0.7,0.1-1.5-0.6-1.8c-0.7-0.3-1.5-0.1-1.8,0.6c0,0,0,0.1-0.1,0.1c-2.5,5.6-2.5,12.1,0,17.7C80,41.9,80.5,42.2,81,42.2z"/>
<g class="st1">
	<path class="st0" d="M63.6,124c0.1,0,0.2,0.1,0.3,0.3l8.9,11.6c0-0.2,0-0.4,0-0.5c0-0.2,0-0.3,0-0.5v-10.9h1.8v15.4h-1.1   c-0.2,0-0.3,0-0.4-0.1s-0.2-0.2-0.3-0.3l-8.9-11.6c0,0.2,0,0.4,0,0.5c0,0.2,0,0.3,0,0.5v11h-1.8v-15.4h1.1   C63.4,123.9,63.5,123.9,63.6,124z"/>
</g>
<g class="st1">
	<path class="st0" d="M86.1,139.3h-0.9c-0.2,0-0.3,0-0.5-0.1s-0.2-0.2-0.2-0.4l-0.2-1c-0.3,0.3-0.6,0.5-0.8,0.7   c-0.3,0.2-0.6,0.4-0.9,0.5c-0.3,0.1-0.6,0.2-1,0.3c-0.3,0.1-0.7,0.1-1.1,0.1c-0.4,0-0.8-0.1-1.2-0.2c-0.4-0.1-0.7-0.3-1-0.5   c-0.3-0.2-0.5-0.5-0.7-0.9c-0.2-0.4-0.2-0.8-0.2-1.3c0-0.4,0.1-0.8,0.4-1.2c0.2-0.4,0.6-0.8,1.1-1.1s1.2-0.6,2.1-0.8   s1.9-0.3,3.1-0.3v-0.9c0-0.9-0.2-1.5-0.5-1.9c-0.4-0.4-0.9-0.7-1.6-0.7c-0.5,0-0.9,0.1-1.2,0.2s-0.6,0.3-0.8,0.4   c-0.2,0.1-0.4,0.3-0.6,0.4c-0.2,0.1-0.3,0.2-0.5,0.2c-0.1,0-0.2,0-0.3-0.1c-0.1-0.1-0.2-0.2-0.2-0.3l-0.3-0.6   c0.6-0.6,1.3-1,1.9-1.3s1.5-0.4,2.3-0.4c0.6,0,1.2,0.1,1.6,0.3c0.5,0.2,0.9,0.5,1.2,0.8c0.3,0.4,0.6,0.8,0.7,1.3   c0.2,0.5,0.2,1.1,0.2,1.7V139.3z M81.2,138.2c0.3,0,0.6,0,0.9-0.1s0.5-0.2,0.8-0.3c0.2-0.1,0.5-0.3,0.7-0.5   c0.2-0.2,0.4-0.4,0.7-0.6v-2.3c-0.9,0-1.6,0.1-2.2,0.2c-0.6,0.1-1.1,0.3-1.5,0.4c-0.4,0.2-0.7,0.4-0.8,0.6   c-0.2,0.2-0.3,0.5-0.3,0.8c0,0.3,0,0.5,0.1,0.7c0.1,0.2,0.2,0.4,0.4,0.5c0.2,0.1,0.3,0.2,0.6,0.3C80.7,138.1,80.9,138.2,81.2,138.2   z"/>
</g>
<g class="st1">
	<path class="st0" d="M87.3,128.4h1.6c0.2,0,0.3,0,0.4,0.1s0.2,0.2,0.2,0.3l2.8,7c0.1,0.3,0.2,0.5,0.2,0.8c0.1,0.3,0.1,0.5,0.2,0.8   c0.1-0.3,0.1-0.5,0.2-0.8c0.1-0.3,0.1-0.5,0.2-0.8l2.8-7c0-0.1,0.1-0.2,0.2-0.3c0.1-0.1,0.2-0.1,0.4-0.1h1.5l-4.4,10.9h-1.7   L87.3,128.4z"/>
</g>
<g class="st1">
	<path class="st0" d="M103.7,128.3c0.7,0,1.3,0.1,1.8,0.3s1,0.5,1.4,0.9c0.4,0.4,0.7,0.9,0.9,1.5c0.2,0.6,0.3,1.3,0.3,2.1   c0,0.3,0,0.5-0.1,0.6s-0.2,0.2-0.4,0.2h-7.3c0,0.7,0.1,1.3,0.3,1.8c0.2,0.5,0.4,0.9,0.7,1.3c0.3,0.3,0.7,0.6,1.1,0.8   s0.9,0.3,1.4,0.3c0.5,0,0.9-0.1,1.2-0.2c0.3-0.1,0.6-0.2,0.9-0.4c0.3-0.1,0.5-0.2,0.6-0.4c0.2-0.1,0.3-0.2,0.4-0.2   c0.2,0,0.3,0.1,0.4,0.2l0.5,0.7c-0.2,0.3-0.5,0.5-0.9,0.7s-0.7,0.4-1.1,0.5c-0.4,0.1-0.8,0.2-1.2,0.3c-0.4,0.1-0.8,0.1-1.2,0.1   c-0.8,0-1.4-0.1-2.1-0.4c-0.6-0.3-1.2-0.6-1.6-1.1c-0.5-0.5-0.8-1.1-1.1-1.8s-0.4-1.6-0.4-2.5c0-0.8,0.1-1.5,0.4-2.1   c0.2-0.7,0.6-1.2,1-1.7c0.4-0.5,1-0.9,1.6-1.1C102.2,128.4,103,128.3,103.7,128.3z M103.8,129.7c-0.9,0-1.7,0.3-2.2,0.8   c-0.5,0.5-0.9,1.3-1,2.2h5.9c0-0.4-0.1-0.9-0.2-1.2c-0.1-0.4-0.3-0.7-0.5-1c-0.2-0.3-0.5-0.5-0.9-0.6S104.2,129.7,103.8,129.7z"/>
	<path class="st0" d="M114.4,128.2c0.5,0,0.9,0.1,1.3,0.2c0.4,0.1,0.8,0.3,1.1,0.5h3v0.7c0,0.2-0.2,0.4-0.5,0.5l-1.2,0.2   c0.2,0.5,0.4,1,0.4,1.6c0,0.5-0.1,1-0.3,1.4c-0.2,0.4-0.5,0.8-0.9,1.1s-0.8,0.5-1.3,0.7s-1,0.2-1.6,0.2c-0.5,0-1-0.1-1.4-0.2   c-0.2,0.1-0.4,0.3-0.5,0.5c-0.1,0.2-0.2,0.3-0.2,0.5c0,0.3,0.1,0.5,0.3,0.6c0.2,0.1,0.5,0.2,0.8,0.3s0.7,0.1,1.2,0.1   c0.4,0,0.9,0,1.3,0s0.9,0,1.3,0.1s0.8,0.2,1.2,0.4s0.6,0.4,0.8,0.8c0.2,0.3,0.3,0.7,0.3,1.2c0,0.5-0.1,0.9-0.3,1.4   c-0.2,0.4-0.6,0.8-1,1.2c-0.4,0.3-1,0.6-1.6,0.8c-0.6,0.2-1.3,0.3-2.1,0.3c-0.8,0-1.5-0.1-2.1-0.2c-0.6-0.2-1.1-0.4-1.5-0.6   c-0.4-0.3-0.7-0.6-0.9-0.9s-0.3-0.7-0.3-1.1c0-0.5,0.2-1,0.5-1.4c0.3-0.4,0.8-0.7,1.4-0.9c-0.3-0.1-0.6-0.3-0.7-0.6s-0.3-0.6-0.3-1   c0-0.2,0-0.3,0.1-0.5c0.1-0.2,0.1-0.3,0.3-0.5c0.1-0.2,0.3-0.3,0.4-0.5c0.2-0.2,0.4-0.3,0.6-0.4c-0.5-0.3-1-0.7-1.3-1.2   c-0.3-0.5-0.5-1.1-0.5-1.7c0-0.5,0.1-1,0.3-1.4c0.2-0.4,0.5-0.8,0.9-1.1c0.4-0.3,0.8-0.5,1.3-0.7   C113.2,128.3,113.8,128.2,114.4,128.2z M117.8,139.9c0-0.3-0.1-0.5-0.2-0.7s-0.4-0.3-0.6-0.4c-0.3-0.1-0.6-0.2-0.9-0.2   c-0.3,0-0.7-0.1-1.1-0.1s-0.8,0-1.1,0s-0.8,0-1.1-0.1c-0.4,0.2-0.7,0.4-1,0.7s-0.4,0.6-0.4,1c0,0.2,0.1,0.5,0.2,0.7   c0.1,0.2,0.3,0.4,0.6,0.5c0.3,0.2,0.6,0.3,1,0.4c0.4,0.1,0.9,0.1,1.4,0.1c0.5,0,1,0,1.4-0.1c0.4-0.1,0.8-0.2,1-0.4s0.5-0.4,0.7-0.6   C117.7,140.4,117.8,140.2,117.8,139.9z M114.4,134c0.4,0,0.7-0.1,1-0.2s0.5-0.3,0.7-0.5c0.2-0.2,0.4-0.4,0.5-0.7   c0.1-0.3,0.2-0.6,0.2-0.9c0-0.7-0.2-1.2-0.6-1.6c-0.4-0.4-1-0.6-1.8-0.6c-0.8,0-1.4,0.2-1.8,0.6s-0.6,0.9-0.6,1.6   c0,0.3,0.1,0.6,0.2,0.9c0.1,0.3,0.3,0.5,0.5,0.7c0.2,0.2,0.4,0.3,0.7,0.5S114,134,114.4,134z"/>
	<path class="st0" d="M129.7,139.3h-0.9c-0.2,0-0.3,0-0.5-0.1c-0.1-0.1-0.2-0.2-0.2-0.4l-0.2-1c-0.3,0.3-0.6,0.5-0.8,0.7   c-0.3,0.2-0.6,0.4-0.9,0.5s-0.6,0.2-1,0.3c-0.3,0.1-0.7,0.1-1.1,0.1c-0.4,0-0.8-0.1-1.2-0.2c-0.4-0.1-0.7-0.3-1-0.5   c-0.3-0.2-0.5-0.5-0.7-0.9c-0.2-0.4-0.2-0.8-0.2-1.3c0-0.4,0.1-0.8,0.4-1.2c0.2-0.4,0.6-0.8,1.1-1.1s1.2-0.6,2.1-0.8   c0.9-0.2,1.9-0.3,3.1-0.3v-0.9c0-0.9-0.2-1.5-0.5-1.9c-0.4-0.4-0.9-0.7-1.6-0.7c-0.5,0-0.9,0.1-1.2,0.2s-0.6,0.3-0.8,0.4   s-0.4,0.3-0.6,0.4c-0.2,0.1-0.3,0.2-0.5,0.2c-0.1,0-0.2,0-0.3-0.1s-0.2-0.2-0.2-0.3l-0.3-0.6c0.6-0.6,1.3-1,1.9-1.3   s1.5-0.4,2.3-0.4c0.6,0,1.2,0.1,1.6,0.3c0.5,0.2,0.9,0.5,1.2,0.8c0.3,0.4,0.6,0.8,0.7,1.3c0.2,0.5,0.2,1.1,0.2,1.7V139.3z    M124.8,138.2c0.3,0,0.6,0,0.9-0.1c0.3-0.1,0.5-0.2,0.8-0.3c0.2-0.1,0.5-0.3,0.7-0.5c0.2-0.2,0.4-0.4,0.7-0.6v-2.3   c-0.9,0-1.6,0.1-2.2,0.2c-0.6,0.1-1.1,0.3-1.5,0.4c-0.4,0.2-0.7,0.4-0.8,0.6c-0.2,0.2-0.3,0.5-0.3,0.8c0,0.3,0,0.5,0.1,0.7   c0.1,0.2,0.2,0.4,0.4,0.5s0.3,0.2,0.6,0.3C124.3,138.1,124.5,138.2,124.8,138.2z"/>
	<path class="st0" d="M132.6,139.3v-10.9h1.1c0.2,0,0.4,0,0.4,0.1c0.1,0.1,0.1,0.2,0.2,0.4l0.1,1.7c0.4-0.8,0.8-1.4,1.4-1.8   c0.5-0.4,1.2-0.6,1.9-0.6c0.3,0,0.6,0,0.8,0.1s0.5,0.2,0.7,0.3l-0.2,1.4c0,0.2-0.2,0.3-0.3,0.3c-0.1,0-0.3,0-0.5-0.1   s-0.5-0.1-0.9-0.1c-0.7,0-1.2,0.2-1.7,0.6s-0.8,1-1.1,1.7v6.9H132.6z"/>
</g>
<g class="st1">
	<path class="st0" d="M47.1,168.9v-14.6h1.1c0.3,0,0.4,0.1,0.5,0.4l0.2,1.3c0.5-0.6,1-1,1.6-1.4c0.6-0.3,1.3-0.5,2.1-0.5   c0.6,0,1.2,0.1,1.7,0.4c0.5,0.2,0.9,0.6,1.3,1.1c0.4,0.5,0.6,1.1,0.8,1.7s0.3,1.5,0.3,2.4c0,0.8-0.1,1.6-0.3,2.2   c-0.2,0.7-0.5,1.3-0.9,1.8s-0.9,0.9-1.5,1.2c-0.6,0.3-1.2,0.4-2,0.4c-0.7,0-1.3-0.1-1.7-0.3c-0.5-0.2-0.9-0.5-1.3-0.9v4.8H47.1z    M52,155.6c-0.6,0-1.2,0.1-1.6,0.4c-0.5,0.3-0.9,0.7-1.3,1.2v5.3c0.4,0.5,0.7,0.8,1.2,1c0.4,0.2,0.9,0.3,1.4,0.3   c1,0,1.8-0.4,2.3-1.1s0.8-1.8,0.8-3.1c0-0.7-0.1-1.3-0.2-1.8s-0.3-0.9-0.5-1.3s-0.5-0.6-0.9-0.7C52.8,155.7,52.4,155.6,52,155.6z"/>
	<path class="st0" d="M63.4,154.1c0.8,0,1.5,0.1,2.2,0.4c0.6,0.3,1.2,0.6,1.6,1.1c0.4,0.5,0.8,1.1,1,1.8c0.2,0.7,0.4,1.5,0.4,2.3   c0,0.9-0.1,1.6-0.4,2.3c-0.2,0.7-0.6,1.3-1,1.8c-0.4,0.5-1,0.9-1.6,1.1c-0.6,0.3-1.4,0.4-2.2,0.4s-1.5-0.1-2.2-0.4   c-0.6-0.3-1.2-0.6-1.6-1.1c-0.5-0.5-0.8-1.1-1-1.8c-0.2-0.7-0.4-1.5-0.4-2.3c0-0.9,0.1-1.6,0.4-2.3c0.2-0.7,0.6-1.3,1-1.8   c0.5-0.5,1-0.9,1.6-1.1C61.9,154.2,62.6,154.1,63.4,154.1z M63.4,163.8c1.1,0,1.9-0.4,2.4-1.1c0.5-0.7,0.8-1.7,0.8-3   c0-1.3-0.3-2.3-0.8-3c-0.5-0.7-1.3-1.1-2.4-1.1c-0.5,0-1,0.1-1.4,0.3s-0.7,0.5-1,0.8c-0.3,0.4-0.5,0.8-0.6,1.3s-0.2,1.1-0.2,1.7   c0,0.6,0.1,1.2,0.2,1.7s0.3,0.9,0.6,1.3c0.3,0.3,0.6,0.6,1,0.8C62.4,163.7,62.9,163.8,63.4,163.8z"/>
	<path class="st0" d="M71,165.2v-10.9h1.1c0.2,0,0.4,0,0.4,0.1c0.1,0.1,0.1,0.2,0.2,0.4l0.1,1.7c0.4-0.8,0.8-1.4,1.4-1.8   c0.5-0.4,1.2-0.6,1.9-0.6c0.3,0,0.6,0,0.8,0.1c0.2,0.1,0.5,0.2,0.7,0.3l-0.2,1.4c-0.1,0.2-0.2,0.3-0.3,0.3c-0.1,0-0.3,0-0.5-0.1   s-0.5-0.1-0.9-0.1c-0.7,0-1.2,0.2-1.7,0.6c-0.4,0.4-0.8,1-1.1,1.7v6.9H71z"/>
	<path class="st0" d="M91.8,165.2H91c-0.2,0-0.3,0-0.5-0.1s-0.2-0.2-0.2-0.4l-0.2-1c-0.3,0.3-0.6,0.5-0.8,0.7   c-0.3,0.2-0.6,0.4-0.9,0.5c-0.3,0.1-0.6,0.2-1,0.3c-0.3,0.1-0.7,0.1-1.1,0.1c-0.4,0-0.8-0.1-1.2-0.2c-0.4-0.1-0.7-0.3-1-0.5   c-0.3-0.2-0.5-0.5-0.7-0.9c-0.2-0.4-0.2-0.8-0.2-1.3c0-0.4,0.1-0.8,0.4-1.2c0.2-0.4,0.6-0.8,1.1-1.1s1.2-0.6,2.1-0.8   s1.9-0.3,3.1-0.3v-0.9c0-0.9-0.2-1.5-0.5-1.9c-0.4-0.4-0.9-0.7-1.6-0.7c-0.5,0-0.9,0.1-1.2,0.2s-0.6,0.3-0.8,0.4   c-0.2,0.1-0.4,0.3-0.6,0.4c-0.2,0.1-0.3,0.2-0.5,0.2c-0.1,0-0.2,0-0.3-0.1c-0.1-0.1-0.2-0.2-0.2-0.3l-0.3-0.6   c0.6-0.6,1.3-1,1.9-1.3s1.5-0.4,2.3-0.4c0.6,0,1.2,0.1,1.6,0.3c0.5,0.2,0.9,0.5,1.2,0.8c0.3,0.4,0.6,0.8,0.7,1.3   c0.2,0.5,0.2,1.1,0.2,1.7V165.2z M86.9,164c0.3,0,0.6,0,0.9-0.1s0.5-0.2,0.8-0.3c0.2-0.1,0.5-0.3,0.7-0.5c0.2-0.2,0.4-0.4,0.7-0.6   v-2.3c-0.9,0-1.6,0.1-2.2,0.2c-0.6,0.1-1.1,0.3-1.5,0.4c-0.4,0.2-0.7,0.4-0.8,0.6c-0.2,0.2-0.3,0.5-0.3,0.8c0,0.3,0,0.5,0.1,0.7   c0.1,0.2,0.2,0.4,0.4,0.5c0.2,0.1,0.3,0.2,0.6,0.3C86.4,164,86.6,164,86.9,164z"/>
	<path class="st0" d="M96.4,154.3v7c0,0.8,0.2,1.5,0.6,1.9s1,0.7,1.7,0.7c0.6,0,1.1-0.1,1.6-0.4s1-0.6,1.4-1.1v-8h1.9v10.9h-1.1   c-0.3,0-0.4-0.1-0.5-0.4l-0.2-1.2c-0.5,0.5-1,0.9-1.6,1.3s-1.3,0.5-2,0.5c-0.6,0-1.1-0.1-1.6-0.3c-0.5-0.2-0.8-0.5-1.1-0.8   c-0.3-0.4-0.5-0.8-0.7-1.3c-0.2-0.5-0.2-1.1-0.2-1.7v-7H96.4z"/>
	<path class="st0" d="M110,165.3c-0.9,0-1.5-0.2-2-0.7s-0.7-1.2-0.7-2.1v-6.7H106c-0.1,0-0.2,0-0.3-0.1c-0.1-0.1-0.1-0.2-0.1-0.3   v-0.8l1.8-0.2l0.4-3.4c0-0.1,0.1-0.2,0.1-0.3c0.1-0.1,0.2-0.1,0.3-0.1h1v3.8h3.1v1.4h-3.1v6.5c0,0.5,0.1,0.8,0.3,1   c0.2,0.2,0.5,0.3,0.9,0.3c0.2,0,0.4,0,0.5-0.1c0.1-0.1,0.3-0.1,0.4-0.2c0.1-0.1,0.2-0.1,0.3-0.2c0.1-0.1,0.1-0.1,0.2-0.1   c0.1,0,0.2,0.1,0.3,0.2l0.6,0.9c-0.3,0.3-0.7,0.6-1.2,0.7S110.5,165.3,110,165.3z"/>
	<path class="st0" d="M119.2,154.1c0.8,0,1.5,0.1,2.2,0.4c0.6,0.3,1.2,0.6,1.6,1.1c0.4,0.5,0.8,1.1,1,1.8s0.4,1.5,0.4,2.3   c0,0.9-0.1,1.6-0.4,2.3c-0.2,0.7-0.6,1.3-1,1.8s-1,0.9-1.6,1.1c-0.6,0.3-1.4,0.4-2.2,0.4c-0.8,0-1.5-0.1-2.2-0.4s-1.2-0.6-1.6-1.1   s-0.8-1.1-1-1.8c-0.2-0.7-0.4-1.5-0.4-2.3c0-0.9,0.1-1.6,0.4-2.3c0.2-0.7,0.6-1.3,1-1.8c0.5-0.5,1-0.9,1.6-1.1   S118.4,154.1,119.2,154.1z M119.2,163.8c1.1,0,1.9-0.4,2.4-1.1c0.5-0.7,0.8-1.7,0.8-3c0-1.3-0.3-2.3-0.8-3   c-0.5-0.7-1.3-1.1-2.4-1.1c-0.5,0-1,0.1-1.4,0.3c-0.4,0.2-0.7,0.5-1,0.8c-0.3,0.4-0.5,0.8-0.6,1.3s-0.2,1.1-0.2,1.7   c0,0.6,0.1,1.2,0.2,1.7s0.3,0.9,0.6,1.3c0.3,0.3,0.6,0.6,1,0.8C118.1,163.7,118.6,163.8,119.2,163.8z"/>
	<path class="st0" d="M126.7,165.2v-10.9h1.1c0.2,0,0.4,0,0.4,0.1s0.1,0.2,0.2,0.4l0.1,1.7c0.4-0.8,0.8-1.4,1.4-1.8s1.2-0.6,1.9-0.6   c0.3,0,0.6,0,0.8,0.1c0.2,0.1,0.5,0.2,0.7,0.3l-0.2,1.4c-0.1,0.2-0.2,0.3-0.3,0.3c-0.1,0-0.3,0-0.5-0.1s-0.5-0.1-0.9-0.1   c-0.7,0-1.2,0.2-1.7,0.6c-0.4,0.4-0.8,1-1.1,1.7v6.9H126.7z"/>
	<path class="st0" d="M139.7,154.1c0.7,0,1.3,0.1,1.8,0.3s1,0.5,1.4,0.9c0.4,0.4,0.7,0.9,0.9,1.5c0.2,0.6,0.3,1.3,0.3,2.1   c0,0.3,0,0.5-0.1,0.6c-0.1,0.1-0.2,0.2-0.4,0.2h-7.3c0,0.7,0.1,1.3,0.3,1.8c0.2,0.5,0.4,0.9,0.7,1.3c0.3,0.3,0.7,0.6,1.1,0.8   c0.4,0.2,0.9,0.3,1.4,0.3c0.5,0,0.9-0.1,1.2-0.2c0.3-0.1,0.6-0.2,0.9-0.4s0.5-0.2,0.6-0.4s0.3-0.2,0.4-0.2c0.2,0,0.3,0.1,0.4,0.2   l0.5,0.7c-0.2,0.3-0.5,0.5-0.9,0.7s-0.7,0.4-1.1,0.5c-0.4,0.1-0.8,0.2-1.2,0.3c-0.4,0.1-0.8,0.1-1.2,0.1c-0.8,0-1.4-0.1-2.1-0.4   c-0.6-0.3-1.2-0.6-1.6-1.1c-0.5-0.5-0.8-1.1-1.1-1.8c-0.3-0.7-0.4-1.6-0.4-2.5c0-0.8,0.1-1.5,0.3-2.1s0.6-1.2,1-1.7s1-0.9,1.6-1.1   C138.2,154.2,138.9,154.1,139.7,154.1z M139.8,155.5c-0.9,0-1.7,0.3-2.2,0.8c-0.5,0.5-0.9,1.3-1,2.2h5.9c0-0.4-0.1-0.9-0.2-1.2   c-0.1-0.4-0.3-0.7-0.5-1c-0.2-0.3-0.5-0.5-0.9-0.6S140.2,155.5,139.8,155.5z"/>
	<path class="st0" d="M152.9,156.1c-0.1,0.2-0.2,0.2-0.4,0.2c-0.1,0-0.2,0-0.4-0.1c-0.1-0.1-0.3-0.2-0.5-0.3   c-0.2-0.1-0.4-0.2-0.7-0.3c-0.3-0.1-0.6-0.1-1-0.1c-0.3,0-0.6,0-0.9,0.1c-0.3,0.1-0.5,0.2-0.7,0.3s-0.3,0.3-0.4,0.5   c-0.1,0.2-0.1,0.4-0.1,0.6c0,0.3,0.1,0.5,0.2,0.7c0.2,0.2,0.4,0.3,0.6,0.5c0.3,0.1,0.6,0.3,0.9,0.4c0.3,0.1,0.7,0.2,1,0.3   s0.7,0.3,1,0.4c0.3,0.1,0.6,0.3,0.9,0.5c0.3,0.2,0.5,0.5,0.6,0.8c0.2,0.3,0.2,0.7,0.2,1.1c0,0.5-0.1,1-0.3,1.4   c-0.2,0.4-0.4,0.8-0.8,1.1c-0.4,0.3-0.8,0.6-1.3,0.7c-0.5,0.2-1.1,0.3-1.8,0.3c-0.8,0-1.5-0.1-2.1-0.4c-0.6-0.2-1.1-0.6-1.6-1   l0.5-0.7c0.1-0.1,0.1-0.2,0.2-0.2c0.1,0,0.2-0.1,0.3-0.1s0.3,0.1,0.4,0.2s0.3,0.2,0.5,0.3c0.2,0.1,0.5,0.2,0.7,0.3s0.7,0.2,1.1,0.2   c0.4,0,0.7,0,1-0.1c0.3-0.1,0.5-0.2,0.7-0.4s0.3-0.4,0.4-0.6s0.1-0.4,0.1-0.7c0-0.3-0.1-0.5-0.2-0.7c-0.2-0.2-0.4-0.4-0.6-0.5   c-0.3-0.1-0.6-0.3-0.9-0.4c-0.3-0.1-0.7-0.2-1-0.3c-0.4-0.1-0.7-0.2-1-0.4s-0.6-0.3-0.9-0.6s-0.5-0.5-0.6-0.8   c-0.2-0.3-0.2-0.7-0.2-1.2c0-0.4,0.1-0.8,0.3-1.2s0.4-0.7,0.8-1c0.3-0.3,0.7-0.5,1.2-0.7c0.5-0.2,1-0.3,1.6-0.3   c0.7,0,1.4,0.1,1.9,0.3c0.6,0.2,1.1,0.5,1.5,0.9L152.9,156.1z"/>
</g>
</svg>