<?xml version="1.0" encoding="UTF-8"?>
<!-- Generator: Adobe Illustrator 16.0.0, SVG Export Plug-In . SVG Version: 6.00 Build 0)  -->
<!DOCTYPE svg PUBLIC "-//W3C//DTD SVG 1.1//EN" "http://www.w3.org/Graphics/SVG/1.1/DTD/svg11.dtd">
<svg version="1.1" id="Capa_1" xmlns="http://www.w3.org/2000/svg" xmlns:xlink="http://www.w3.org/1999/xlink" x="0px" y="0px" width="32px" height="32px" viewBox="0 0 32 32" enable-background="new 0 0 32 32" xml:space="preserve">
<path d="M3.504,13.241c0.103,0.469,0.28,0.845,0.531,1.131c1.144,0.377,2.634,0.806,4.474,1.286c2.456,0.629,4.022,1.04,4.696,1.234  c2.045,0.57,3.04,0.856,2.982,0.856c0.377,0,0.937-0.183,1.68-0.548c0.148-0.081,0.445-0.24,0.891-0.48  c0.354-0.193,0.623-0.331,0.807-0.412c3.735-1.702,6.506-2.925,8.313-3.667c0.48-0.193,0.805-0.303,0.977-0.325  c0.377-0.046,0.594,0.125,0.652,0.513c0.067,0.412-0.309,0.84-1.131,1.286c0.079-0.046-0.509,0.206-1.768,0.753  c-3.176,1.384-5.426,2.377-6.752,2.982c-2.08,0.949-3.205,1.43-3.376,1.439c-0.16,0.023-1.217-0.234-3.171-0.771  c-6.055-1.623-9.175-2.457-9.358-2.501c-0.4,0.274-0.566,0.72-0.497,1.335c0.046,0.446,0.211,0.933,0.497,1.457  c1.36,0.436,3.399,1.018,6.118,1.75c2.789,0.754,4.828,1.33,6.12,1.73c1.234-0.538,2.88-1.262,4.936-2.177  c2.444-1.085,4.149-1.839,5.108-2.263c0.021-0.011,0.269-0.137,0.736-0.377c0.4-0.205,0.743-0.359,1.029-0.463  c0.868-0.32,1.37-0.234,1.508,0.258c0.113,0.412-0.224,0.822-1.012,1.233c-0.251,0.125-0.59,0.274-1.01,0.445  c-0.504,0.206-0.795,0.319-0.875,0.342c-1.166,0.538-2.577,1.166-4.234,1.886c-1.954,0.868-3.37,1.497-4.25,1.885  c-1.165,0.526-1.714,0.783-1.645,0.771l-3.171-0.874c-2.604-0.708-5.724-1.543-9.358-2.503c-0.4,0.309-0.566,0.783-0.497,1.423  c0.069,0.538,0.263,1.029,0.582,1.474c0.96,0.252,2.458,0.674,4.491,1.271c2.068,0.604,3.628,1.051,4.679,1.336  c1.954,0.526,2.982,0.782,3.086,0.771c0.113-0.011,1.239-0.496,3.375-1.457c0.263-0.114,1.595-0.748,3.994-1.902  c1.588-0.766,3.022-1.383,4.302-1.85c0.903-0.332,1.417-0.27,1.543,0.188c0.126,0.445-0.201,0.863-0.979,1.252  c-0.25,0.125-0.594,0.268-1.028,0.43c-0.491,0.193-0.788,0.307-0.892,0.342c-0.971,0.445-2.086,0.959-3.342,1.543  c-1.645,0.754-2.781,1.272-3.41,1.559c-2.092,0.949-3.217,1.429-3.376,1.439c-0.08,0.012-1.205-0.279-3.377-0.873  c-3.565-0.961-6.878-1.857-9.94-2.691c-0.595-0.583-0.978-1.406-1.149-2.468c-0.183-1.166,0.04-2.05,0.669-2.656  c-0.436-0.606-0.675-1.372-0.721-2.297c-0.034-0.994,0.206-1.737,0.721-2.228c-0.492-0.982-0.749-1.691-0.772-2.126  c-0.011-0.229,0.052-0.514,0.19-0.856c0.16-0.445,0.256-0.771,0.291-0.977c0.034-0.171,0.04-0.405,0.017-0.703  c-0.011-0.228,0.017-0.411,0.086-0.549c0.16-0.308,0.582-0.617,1.267-0.925c0.194-0.08,0.502-0.2,0.926-0.36  c0.411-0.16,0.708-0.28,0.891-0.36c1.039-0.457,2.685-1.194,4.936-2.211c2.206-1.005,3.776-1.713,4.713-2.126  c0.446-0.194,1.149-0.182,2.109,0.035c0.318,0.08,0.719,0.189,1.199,0.326c0.628,0.195,0.971,0.297,1.029,0.309  c0.787,0.217,1.994,0.543,3.615,0.977c1.635,0.435,2.943,0.784,3.926,1.045c0.959,0.275,1.604,0.487,1.937,0.634  c0.662,0.309,1.011,0.68,1.045,1.115c0.034,0.538-0.292,1-0.978,1.389c-0.228,0.126-0.547,0.274-0.959,0.445  c-0.571,0.229-0.892,0.354-0.959,0.377c-1.019,0.457-2.207,0.994-3.566,1.611c-1.508,0.686-2.667,1.211-3.479,1.577  c-2.274,1.018-3.463,1.531-3.565,1.542c-0.263,0.022-1.388-0.233-3.377-0.771c-0.435-0.114-1.994-0.549-4.679-1.303  c-1.965-0.549-3.588-0.982-4.868-1.303C3.441,12.236,3.39,12.692,3.504,13.241z M15.485,8.031c-0.765,0.479-1.303,0.76-1.611,0.839  c0.994,0.297,2.057,0.589,3.188,0.874c0.262-0.16,0.828-0.417,1.695-0.771c0.721-0.297,1.251-0.588,1.594-0.874  c-0.377-0.011-0.925-0.16-1.645-0.446c-0.652-0.251-1.166-0.359-1.543-0.325C16.721,7.373,16.16,7.608,15.485,8.031z"/>
</svg>