<?xml version="1.0" encoding="UTF-8"?>
<!-- Generator: Adobe Illustrator 16.0.0, SVG Export Plug-In . SVG Version: 6.00 Build 0)  -->
<!DOCTYPE svg PUBLIC "-//W3C//DTD SVG 1.1//EN" "http://www.w3.org/Graphics/SVG/1.1/DTD/svg11.dtd">
<svg version="1.1" id="Layer_1" xmlns="http://www.w3.org/2000/svg" xmlns:xlink="http://www.w3.org/1999/xlink" x="0px" y="0px" width="414.42px" height="414.42px" viewBox="261.461 66.08 414.42 414.42" enable-background="new 261.461 66.08 414.42 414.42" xml:space="preserve">
<linearGradient id="SVGID_1_" gradientUnits="userSpaceOnUse" x1="-71.834" y1="187.5801" x2="166.3721" y2="187.5801" gradientTransform="matrix(-1.2324 -1.2324 1.2324 -1.2324 295.7509 562.719)">
	<stop offset="0.0013" style="stop-color:#FBB040"/>
	<stop offset="1" style="stop-color:#92278F"/>
</linearGradient>
<circle fill="#CBCBCB" stroke="url(#SVGID_1_)" stroke-miterlimit="10" cx="468.671" cy="273.29" r="206.71"/>
<g>
	<path fill="#FFFFFF" stroke="#FFFFFF" stroke-miterlimit="10" d="M520.262,163.834H417.255c-36.079,0-65.185,29.107-65.185,64.836   v103.007c0,35.729,29.106,64.836,64.836,64.836h103.354c35.729,0,64.836-29.105,64.836-64.836V228.671   C585.271,192.941,555.991,163.834,520.262,163.834z M566.101,331.678c0,25.446-20.74,45.839-45.839,45.839H417.255   c-25.447,0-45.839-20.74-45.839-45.839V228.671c0-25.446,20.741-45.839,45.839-45.839h103.007   c25.446,0,45.839,20.741,45.839,45.839V331.678z"/>
	<path fill="#FFFFFF" stroke="#FFFFFF" stroke-miterlimit="10" d="M468.846,219.957c-33.29,0-60.306,27.189-60.306,60.305   c0,33.29,27.016,60.305,60.306,60.305c33.289,0,60.306-27.017,60.306-60.305C528.977,247.32,501.961,219.957,468.846,219.957z    M468.846,321.395c-22.658,0-41.133-18.475-41.133-41.132c0-22.658,18.475-41.133,41.133-41.133   c22.657,0,41.133,18.475,41.133,41.133C509.979,302.92,491.329,321.395,468.846,321.395z"/>
	<ellipse fill="#FFFFFF" stroke="#FFFFFF" stroke-miterlimit="10" cx="530.719" cy="218.911" rx="15.512" ry="15.512"/>
</g>
</svg>