<?xml version="1.0" encoding="UTF-8"?>
<!-- Generator: Adobe Illustrator 22.1.0, SVG Export Plug-In . SVG Version: 6.00 Build 0)  -->
<svg version="1.1" id="Capa_1" xmlns="http://www.w3.org/2000/svg" xmlns:xlink="http://www.w3.org/1999/xlink" x="0px" y="0px" viewBox="0 0 200 200" style="enable-background:new 0 0 200 200;" xml:space="preserve">
<style type="text/css">
	.st0{fill:#333333;}
	.st1{enable-background:new    ;}
</style>
<title>icono-materias</title>
<path class="st0" d="M149.4,94.5h-10.9v-27c-0.1-0.8-0.8-1.4-1.7-1.3c-0.7,0.1-1.2,0.6-1.3,1.3v11H124V44.1h11.4v16.3  c-0.1,0.8,0.5,1.6,1.3,1.7s1.6-0.5,1.7-1.3c0-0.1,0-0.2,0-0.3v-35c0-0.8-0.7-1.5-1.5-1.5H124v-6.6c0-0.8-0.7-1.5-1.5-1.5H104  c-0.8,0-1.5,0.7-1.5,1.5v12.5H87.1v-8.5c0-0.8-0.7-1.5-1.5-1.5H63.1c-0.8,0-1.5,0.7-1.5,1.5v5c-0.1,0.8,0.5,1.6,1.3,1.7  s1.6-0.5,1.7-1.3c0-0.1,0-0.2,0-0.3v-3.5h19.5v15.5H64.6v-5c-0.1-0.8-0.8-1.4-1.7-1.3c-0.7,0.1-1.2,0.6-1.3,1.3v61.1h-11  c-0.8,0-1.5,0.7-1.5,1.5c0,0,0,0,0,0v8c0,0.8,0.7,1.5,1.5,1.5h98.7c0.8,0,1.5-0.7,1.5-1.5v-8C150.9,95.2,150.2,94.5,149.4,94.5  C149.4,94.5,149.4,94.5,149.4,94.5z M124,88.3h11.4v6.2H124V88.3z M135.4,81.4v3.8H124v-3.8H135.4z M124,41.1v-3.8h11.4v3.8H124z   M135.4,26.8v7.4H124v-7.4L135.4,26.8z M102.5,32.8v5.3c-0.1,0.8,0.5,1.6,1.3,1.7s1.6-0.5,1.7-1.3c0-0.1,0-0.2,0-0.3V18.8H121v75.7  h-15.5V45.3c-0.1-0.8-0.8-1.4-1.7-1.3c-0.7,0.1-1.2,0.6-1.3,1.3v33.1H87.1V32.9L102.5,32.8z M87.1,94.5v-6.2h15.4v6.2H87.1z   M102.5,85.3H87.1v-3.8h15.4V85.3z M84.1,41.3V76H64.6V41.3H84.1z M64.6,79h19.5v15.5H64.6V79z M147.9,102.5H52.1v-5h95.7V102.5z"/>
<path class="st0" d="M110,91.5h6.4c0.8,0,1.5-0.6,1.6-1.4c0,0,0,0,0,0V23.3c0-0.8-0.7-1.5-1.5-1.5H110c-0.8,0-1.5,0.7-1.5,1.5V90  C108.5,90.8,109.2,91.5,110,91.5z M111.5,24.8h3.5v63.6h-3.4L111.5,24.8z"/>
<g class="st1">
	<path class="st0" d="M63.6,124c0.1,0,0.2,0.1,0.3,0.3l8.9,11.6c0-0.2,0-0.4,0-0.5c0-0.2,0-0.3,0-0.5v-10.9h1.8v15.4h-1.1   c-0.2,0-0.3,0-0.4-0.1s-0.2-0.2-0.3-0.3l-8.9-11.6c0,0.2,0,0.4,0,0.5c0,0.2,0,0.3,0,0.5v11h-1.8v-15.4h1.1   C63.4,123.9,63.5,123.9,63.6,124z"/>
</g>
<g class="st1">
	<path class="st0" d="M86.1,139.3h-0.9c-0.2,0-0.3,0-0.5-0.1s-0.2-0.2-0.2-0.4l-0.2-1c-0.3,0.3-0.6,0.5-0.8,0.7   c-0.3,0.2-0.6,0.4-0.9,0.5c-0.3,0.1-0.6,0.2-1,0.3c-0.3,0.1-0.7,0.1-1.1,0.1c-0.4,0-0.8-0.1-1.2-0.2c-0.4-0.1-0.7-0.3-1-0.5   c-0.3-0.2-0.5-0.5-0.7-0.9c-0.2-0.4-0.2-0.8-0.2-1.3c0-0.4,0.1-0.8,0.4-1.2c0.2-0.4,0.6-0.8,1.1-1.1s1.2-0.6,2.1-0.8   s1.9-0.3,3.1-0.3v-0.9c0-0.9-0.2-1.5-0.5-1.9c-0.4-0.4-0.9-0.7-1.6-0.7c-0.5,0-0.9,0.1-1.2,0.2s-0.6,0.3-0.8,0.4   c-0.2,0.1-0.4,0.3-0.6,0.4c-0.2,0.1-0.3,0.2-0.5,0.2c-0.1,0-0.2,0-0.3-0.1c-0.1-0.1-0.2-0.2-0.2-0.3l-0.3-0.6   c0.6-0.6,1.3-1,1.9-1.3s1.5-0.4,2.3-0.4c0.6,0,1.2,0.1,1.6,0.3c0.5,0.2,0.9,0.5,1.2,0.8c0.3,0.4,0.6,0.8,0.7,1.3   c0.2,0.5,0.2,1.1,0.2,1.7V139.3z M81.2,138.2c0.3,0,0.6,0,0.9-0.1s0.5-0.2,0.8-0.3c0.2-0.1,0.5-0.3,0.7-0.5   c0.2-0.2,0.4-0.4,0.7-0.6v-2.3c-0.9,0-1.6,0.1-2.2,0.2c-0.6,0.1-1.1,0.3-1.5,0.4c-0.4,0.2-0.7,0.4-0.8,0.6   c-0.2,0.2-0.3,0.5-0.3,0.8c0,0.3,0,0.5,0.1,0.7c0.1,0.2,0.2,0.4,0.4,0.5c0.2,0.1,0.3,0.2,0.6,0.3C80.7,138.1,80.9,138.2,81.2,138.2   z"/>
</g>
<g class="st1">
	<path class="st0" d="M87.3,128.4h1.6c0.2,0,0.3,0,0.4,0.1s0.2,0.2,0.2,0.3l2.8,7c0.1,0.3,0.2,0.5,0.2,0.8c0.1,0.3,0.1,0.5,0.2,0.8   c0.1-0.3,0.1-0.5,0.2-0.8c0.1-0.3,0.1-0.5,0.2-0.8l2.8-7c0-0.1,0.1-0.2,0.2-0.3c0.1-0.1,0.2-0.1,0.4-0.1h1.5l-4.4,10.9h-1.7   L87.3,128.4z"/>
</g>
<g class="st1">
	<path class="st0" d="M103.7,128.3c0.7,0,1.3,0.1,1.8,0.3s1,0.5,1.4,0.9c0.4,0.4,0.7,0.9,0.9,1.5c0.2,0.6,0.3,1.3,0.3,2.1   c0,0.3,0,0.5-0.1,0.6s-0.2,0.2-0.4,0.2h-7.3c0,0.7,0.1,1.3,0.3,1.8c0.2,0.5,0.4,0.9,0.7,1.3c0.3,0.3,0.7,0.6,1.1,0.8   s0.9,0.3,1.4,0.3c0.5,0,0.9-0.1,1.2-0.2c0.3-0.1,0.6-0.2,0.9-0.4c0.3-0.1,0.5-0.2,0.6-0.4c0.2-0.1,0.3-0.2,0.4-0.2   c0.2,0,0.3,0.1,0.4,0.2l0.5,0.7c-0.2,0.3-0.5,0.5-0.9,0.7s-0.7,0.4-1.1,0.5c-0.4,0.1-0.8,0.2-1.2,0.3c-0.4,0.1-0.8,0.1-1.2,0.1   c-0.8,0-1.4-0.1-2.1-0.4c-0.6-0.3-1.2-0.6-1.6-1.1c-0.5-0.5-0.8-1.1-1.1-1.8s-0.4-1.6-0.4-2.5c0-0.8,0.1-1.5,0.4-2.1   c0.2-0.7,0.6-1.2,1-1.7c0.4-0.5,1-0.9,1.6-1.1C102.2,128.4,103,128.3,103.7,128.3z M103.8,129.7c-0.9,0-1.7,0.3-2.2,0.8   c-0.5,0.5-0.9,1.3-1,2.2h5.9c0-0.4-0.1-0.9-0.2-1.2c-0.1-0.4-0.3-0.7-0.5-1c-0.2-0.3-0.5-0.5-0.9-0.6S104.2,129.7,103.8,129.7z"/>
	<path class="st0" d="M114.4,128.2c0.5,0,0.9,0.1,1.3,0.2c0.4,0.1,0.8,0.3,1.1,0.5h3v0.7c0,0.2-0.2,0.4-0.5,0.5l-1.2,0.2   c0.2,0.5,0.4,1,0.4,1.6c0,0.5-0.1,1-0.3,1.4c-0.2,0.4-0.5,0.8-0.9,1.1s-0.8,0.5-1.3,0.7s-1,0.2-1.6,0.2c-0.5,0-1-0.1-1.4-0.2   c-0.2,0.1-0.4,0.3-0.5,0.5c-0.1,0.2-0.2,0.3-0.2,0.5c0,0.3,0.1,0.5,0.3,0.6c0.2,0.1,0.5,0.2,0.8,0.3s0.7,0.1,1.2,0.1   c0.4,0,0.9,0,1.3,0s0.9,0,1.3,0.1s0.8,0.2,1.2,0.4s0.6,0.4,0.8,0.8c0.2,0.3,0.3,0.7,0.3,1.2c0,0.5-0.1,0.9-0.3,1.4   c-0.2,0.4-0.6,0.8-1,1.2c-0.4,0.3-1,0.6-1.6,0.8c-0.6,0.2-1.3,0.3-2.1,0.3c-0.8,0-1.5-0.1-2.1-0.2c-0.6-0.2-1.1-0.4-1.5-0.6   c-0.4-0.3-0.7-0.6-0.9-0.9s-0.3-0.7-0.3-1.1c0-0.5,0.2-1,0.5-1.4c0.3-0.4,0.8-0.7,1.4-0.9c-0.3-0.1-0.6-0.3-0.7-0.6s-0.3-0.6-0.3-1   c0-0.2,0-0.3,0.1-0.5c0.1-0.2,0.1-0.3,0.3-0.5c0.1-0.2,0.3-0.3,0.4-0.5c0.2-0.2,0.4-0.3,0.6-0.4c-0.5-0.3-1-0.7-1.3-1.2   c-0.3-0.5-0.5-1.1-0.5-1.7c0-0.5,0.1-1,0.3-1.4c0.2-0.4,0.5-0.8,0.9-1.1c0.4-0.3,0.8-0.5,1.3-0.7   C113.2,128.3,113.8,128.2,114.4,128.2z M117.8,139.9c0-0.3-0.1-0.5-0.2-0.7s-0.4-0.3-0.6-0.4c-0.3-0.1-0.6-0.2-0.9-0.2   c-0.3,0-0.7-0.1-1.1-0.1s-0.8,0-1.1,0s-0.8,0-1.1-0.1c-0.4,0.2-0.7,0.4-1,0.7s-0.4,0.6-0.4,1c0,0.2,0.1,0.5,0.2,0.7   c0.1,0.2,0.3,0.4,0.6,0.5c0.3,0.2,0.6,0.3,1,0.4c0.4,0.1,0.9,0.1,1.4,0.1c0.5,0,1,0,1.4-0.1c0.4-0.1,0.8-0.2,1-0.4s0.5-0.4,0.7-0.6   C117.7,140.4,117.8,140.2,117.8,139.9z M114.4,134c0.4,0,0.7-0.1,1-0.2s0.5-0.3,0.7-0.5c0.2-0.2,0.4-0.4,0.5-0.7   c0.1-0.3,0.2-0.6,0.2-0.9c0-0.7-0.2-1.2-0.6-1.6c-0.4-0.4-1-0.6-1.8-0.6c-0.8,0-1.4,0.2-1.8,0.6s-0.6,0.9-0.6,1.6   c0,0.3,0.1,0.6,0.2,0.9c0.1,0.3,0.3,0.5,0.5,0.7c0.2,0.2,0.4,0.3,0.7,0.5S114,134,114.4,134z"/>
	<path class="st0" d="M129.7,139.3h-0.9c-0.2,0-0.3,0-0.5-0.1c-0.1-0.1-0.2-0.2-0.2-0.4l-0.2-1c-0.3,0.3-0.6,0.5-0.8,0.7   c-0.3,0.2-0.6,0.4-0.9,0.5s-0.6,0.2-1,0.3c-0.3,0.1-0.7,0.1-1.1,0.1c-0.4,0-0.8-0.1-1.2-0.2c-0.4-0.1-0.7-0.3-1-0.5   c-0.3-0.2-0.5-0.5-0.7-0.9c-0.2-0.4-0.2-0.8-0.2-1.3c0-0.4,0.1-0.8,0.4-1.2c0.2-0.4,0.6-0.8,1.1-1.1s1.2-0.6,2.1-0.8   c0.9-0.2,1.9-0.3,3.1-0.3v-0.9c0-0.9-0.2-1.5-0.5-1.9c-0.4-0.4-0.9-0.7-1.6-0.7c-0.5,0-0.9,0.1-1.2,0.2s-0.6,0.3-0.8,0.4   s-0.4,0.3-0.6,0.4c-0.2,0.1-0.3,0.2-0.5,0.2c-0.1,0-0.2,0-0.3-0.1s-0.2-0.2-0.2-0.3l-0.3-0.6c0.6-0.6,1.3-1,1.9-1.3   s1.5-0.4,2.3-0.4c0.6,0,1.2,0.1,1.6,0.3c0.5,0.2,0.9,0.5,1.2,0.8c0.3,0.4,0.6,0.8,0.7,1.3c0.2,0.5,0.2,1.1,0.2,1.7V139.3z    M124.8,138.2c0.3,0,0.6,0,0.9-0.1c0.3-0.1,0.5-0.2,0.8-0.3c0.2-0.1,0.5-0.3,0.7-0.5c0.2-0.2,0.4-0.4,0.7-0.6v-2.3   c-0.9,0-1.6,0.1-2.2,0.2c-0.6,0.1-1.1,0.3-1.5,0.4c-0.4,0.2-0.7,0.4-0.8,0.6c-0.2,0.2-0.3,0.5-0.3,0.8c0,0.3,0,0.5,0.1,0.7   c0.1,0.2,0.2,0.4,0.4,0.5s0.3,0.2,0.6,0.3C124.3,138.1,124.5,138.2,124.8,138.2z"/>
	<path class="st0" d="M132.6,139.3v-10.9h1.1c0.2,0,0.4,0,0.4,0.1c0.1,0.1,0.1,0.2,0.2,0.4l0.1,1.7c0.4-0.8,0.8-1.4,1.4-1.8   c0.5-0.4,1.2-0.6,1.9-0.6c0.3,0,0.6,0,0.8,0.1s0.5,0.2,0.7,0.3l-0.2,1.4c0,0.2-0.2,0.3-0.3,0.3c-0.1,0-0.3,0-0.5-0.1   s-0.5-0.1-0.9-0.1c-0.7,0-1.2,0.2-1.7,0.6s-0.8,1-1.1,1.7v6.9H132.6z"/>
</g>
<g class="st1">
	<path class="st0" d="M42.1,168.9v-14.6h1.1c0.3,0,0.4,0.1,0.5,0.4l0.2,1.3c0.5-0.6,1-1,1.6-1.4s1.3-0.5,2.1-0.5   c0.6,0,1.2,0.1,1.7,0.4c0.5,0.2,0.9,0.6,1.3,1.1c0.4,0.5,0.6,1.1,0.8,1.7c0.2,0.7,0.3,1.5,0.3,2.4c0,0.8-0.1,1.6-0.3,2.2   c-0.2,0.7-0.5,1.3-0.9,1.8c-0.4,0.5-0.9,0.9-1.5,1.2c-0.6,0.3-1.2,0.4-2,0.4c-0.7,0-1.3-0.1-1.7-0.3c-0.5-0.2-0.9-0.5-1.3-0.9v4.8   H42.1z M46.9,155.6c-0.6,0-1.2,0.1-1.6,0.4c-0.5,0.3-0.9,0.7-1.3,1.2v5.3c0.4,0.5,0.7,0.8,1.2,1c0.4,0.2,0.9,0.3,1.4,0.3   c1,0,1.8-0.4,2.3-1.1c0.5-0.7,0.8-1.8,0.8-3.1c0-0.7-0.1-1.3-0.2-1.8c-0.1-0.5-0.3-0.9-0.5-1.3c-0.2-0.3-0.5-0.6-0.9-0.7   C47.7,155.7,47.4,155.6,46.9,155.6z"/>
	<path class="st0" d="M58.4,154.1c0.8,0,1.5,0.1,2.2,0.4c0.6,0.3,1.2,0.6,1.6,1.1c0.4,0.5,0.8,1.1,1,1.8s0.4,1.5,0.4,2.3   c0,0.9-0.1,1.6-0.4,2.3c-0.2,0.7-0.6,1.3-1,1.8s-1,0.9-1.6,1.1c-0.6,0.3-1.4,0.4-2.2,0.4c-0.8,0-1.5-0.1-2.2-0.4s-1.2-0.6-1.6-1.1   s-0.8-1.1-1-1.8c-0.2-0.7-0.4-1.5-0.4-2.3c0-0.9,0.1-1.6,0.4-2.3c0.2-0.7,0.6-1.3,1-1.8c0.5-0.5,1-0.9,1.6-1.1   S57.6,154.1,58.4,154.1z M58.4,163.8c1.1,0,1.9-0.4,2.4-1.1c0.5-0.7,0.8-1.7,0.8-3c0-1.3-0.3-2.3-0.8-3c-0.5-0.7-1.3-1.1-2.4-1.1   c-0.5,0-1,0.1-1.4,0.3c-0.4,0.2-0.7,0.5-1,0.8c-0.3,0.4-0.5,0.8-0.6,1.3s-0.2,1.1-0.2,1.7c0,0.6,0.1,1.2,0.2,1.7s0.3,0.9,0.6,1.3   c0.3,0.3,0.6,0.6,1,0.8C57.3,163.7,57.8,163.8,58.4,163.8z"/>
	<path class="st0" d="M65.9,165.2v-10.9H67c0.2,0,0.4,0,0.4,0.1s0.1,0.2,0.2,0.4l0.1,1.7c0.4-0.8,0.8-1.4,1.4-1.8s1.2-0.6,1.9-0.6   c0.3,0,0.6,0,0.8,0.1c0.2,0.1,0.5,0.2,0.7,0.3l-0.2,1.4c-0.1,0.2-0.2,0.3-0.3,0.3c-0.1,0-0.3,0-0.5-0.1s-0.5-0.1-0.9-0.1   c-0.7,0-1.2,0.2-1.7,0.6c-0.4,0.4-0.8,1-1.1,1.7v6.9H65.9z"/>
	<path class="st0" d="M78.7,165.2v-10.9h1.1c0.3,0,0.4,0.1,0.5,0.4l0.1,1.1c0.4-0.5,0.9-0.9,1.4-1.2c0.5-0.3,1.1-0.5,1.7-0.5   c0.7,0,1.3,0.2,1.8,0.6s0.8,1,1,1.7c0.2-0.4,0.3-0.7,0.6-1c0.2-0.3,0.5-0.5,0.8-0.7s0.6-0.3,1-0.4c0.3-0.1,0.7-0.1,1.1-0.1   c0.6,0,1.1,0.1,1.5,0.3s0.8,0.5,1.1,0.8c0.3,0.4,0.6,0.8,0.7,1.3c0.2,0.5,0.2,1.1,0.2,1.8v6.9h-1.9v-6.9c0-0.9-0.2-1.5-0.6-1.9   s-0.9-0.7-1.6-0.7c-0.3,0-0.6,0.1-0.9,0.2c-0.3,0.1-0.5,0.3-0.7,0.5c-0.2,0.2-0.4,0.5-0.5,0.8s-0.2,0.7-0.2,1.1v6.9h-1.9v-6.9   c0-0.9-0.2-1.5-0.5-2s-0.9-0.6-1.5-0.6c-0.5,0-0.9,0.1-1.3,0.4s-0.8,0.6-1.1,1v8.1H78.7z"/>
	<path class="st0" d="M104.4,165.2h-0.9c-0.2,0-0.3,0-0.5-0.1c-0.1-0.1-0.2-0.2-0.2-0.4l-0.2-1c-0.3,0.3-0.6,0.5-0.8,0.7   c-0.3,0.2-0.6,0.4-0.9,0.5c-0.3,0.1-0.6,0.2-1,0.3c-0.3,0.1-0.7,0.1-1.1,0.1c-0.4,0-0.8-0.1-1.2-0.2c-0.4-0.1-0.7-0.3-1-0.5   c-0.3-0.2-0.5-0.5-0.7-0.9c-0.2-0.4-0.2-0.8-0.2-1.3c0-0.4,0.1-0.8,0.4-1.2c0.2-0.4,0.6-0.8,1.1-1.1s1.2-0.6,2.1-0.8   c0.9-0.2,1.9-0.3,3.1-0.3v-0.9c0-0.9-0.2-1.5-0.5-1.9c-0.4-0.4-0.9-0.7-1.6-0.7c-0.5,0-0.9,0.1-1.2,0.2s-0.6,0.3-0.8,0.4   c-0.2,0.1-0.4,0.3-0.6,0.4s-0.3,0.2-0.5,0.2c-0.1,0-0.2,0-0.3-0.1c-0.1-0.1-0.2-0.2-0.2-0.3l-0.3-0.6c0.6-0.6,1.3-1,1.9-1.3   s1.5-0.4,2.3-0.4c0.6,0,1.2,0.1,1.6,0.3c0.5,0.2,0.9,0.5,1.2,0.8c0.3,0.4,0.6,0.8,0.7,1.3c0.2,0.5,0.2,1.1,0.2,1.7V165.2z    M99.5,164c0.3,0,0.6,0,0.9-0.1c0.3-0.1,0.5-0.2,0.8-0.3c0.2-0.1,0.5-0.3,0.7-0.5c0.2-0.2,0.4-0.4,0.7-0.6v-2.3   c-0.9,0-1.6,0.1-2.3,0.2c-0.6,0.1-1.1,0.3-1.5,0.4c-0.4,0.2-0.7,0.4-0.8,0.6c-0.2,0.2-0.3,0.5-0.3,0.8c0,0.3,0,0.5,0.1,0.7   c0.1,0.2,0.2,0.4,0.4,0.5c0.2,0.1,0.3,0.2,0.6,0.3C99,164,99.2,164,99.5,164z"/>
	<path class="st0" d="M110.6,165.3c-0.9,0-1.5-0.2-2-0.7s-0.7-1.2-0.7-2.1v-6.7h-1.3c-0.1,0-0.2,0-0.3-0.1s-0.1-0.2-0.1-0.3v-0.8   l1.8-0.2l0.4-3.4c0-0.1,0.1-0.2,0.1-0.3c0.1-0.1,0.2-0.1,0.3-0.1h1v3.8h3.1v1.4h-3.1v6.5c0,0.5,0.1,0.8,0.3,1   c0.2,0.2,0.5,0.3,0.9,0.3c0.2,0,0.4,0,0.5-0.1c0.1-0.1,0.3-0.1,0.4-0.2c0.1-0.1,0.2-0.1,0.3-0.2c0.1-0.1,0.1-0.1,0.2-0.1   c0.1,0,0.2,0.1,0.3,0.2l0.6,0.9c-0.3,0.3-0.7,0.6-1.2,0.7C111.6,165.2,111.1,165.3,110.6,165.3z"/>
	<path class="st0" d="M119.7,154.1c0.7,0,1.3,0.1,1.8,0.3s1,0.5,1.4,0.9c0.4,0.4,0.7,0.9,0.9,1.5c0.2,0.6,0.3,1.3,0.3,2.1   c0,0.3,0,0.5-0.1,0.6s-0.2,0.2-0.4,0.2h-7.3c0,0.7,0.1,1.3,0.3,1.8c0.2,0.5,0.4,0.9,0.7,1.3c0.3,0.3,0.7,0.6,1.1,0.8   s0.9,0.3,1.4,0.3c0.5,0,0.9-0.1,1.2-0.2c0.3-0.1,0.6-0.2,0.9-0.4c0.3-0.1,0.5-0.2,0.6-0.4c0.2-0.1,0.3-0.2,0.4-0.2   c0.2,0,0.3,0.1,0.4,0.2l0.5,0.7c-0.2,0.3-0.5,0.5-0.9,0.7s-0.7,0.4-1.1,0.5c-0.4,0.1-0.8,0.2-1.2,0.3c-0.4,0.1-0.8,0.1-1.2,0.1   c-0.8,0-1.4-0.1-2.1-0.4c-0.6-0.3-1.2-0.6-1.6-1.1c-0.5-0.5-0.8-1.1-1.1-1.8c-0.3-0.7-0.4-1.6-0.4-2.5c0-0.8,0.1-1.5,0.4-2.1   c0.2-0.7,0.6-1.2,1-1.7c0.4-0.5,1-0.9,1.6-1.1C118.2,154.2,118.9,154.1,119.7,154.1z M119.7,155.5c-0.9,0-1.7,0.3-2.2,0.8   c-0.5,0.5-0.9,1.3-1,2.2h5.9c0-0.4-0.1-0.9-0.2-1.2c-0.1-0.4-0.3-0.7-0.5-1c-0.2-0.3-0.5-0.5-0.9-0.6S120.2,155.5,119.7,155.5z"/>
	<path class="st0" d="M126.7,165.2v-10.9h1.1c0.2,0,0.4,0,0.4,0.1c0.1,0.1,0.1,0.2,0.2,0.4l0.1,1.7c0.4-0.8,0.8-1.4,1.4-1.8   c0.5-0.4,1.2-0.6,1.9-0.6c0.3,0,0.6,0,0.8,0.1s0.5,0.2,0.7,0.3l-0.2,1.4c0,0.2-0.2,0.3-0.3,0.3c-0.1,0-0.3,0-0.5-0.1   s-0.5-0.1-0.9-0.1c-0.7,0-1.2,0.2-1.7,0.6s-0.8,1-1.1,1.7v6.9H126.7z"/>
	<path class="st0" d="M137.9,150.8c0,0.2,0,0.4-0.1,0.5c-0.1,0.2-0.2,0.3-0.3,0.4c-0.1,0.1-0.3,0.2-0.4,0.3   c-0.2,0.1-0.3,0.1-0.5,0.1s-0.4,0-0.5-0.1c-0.2-0.1-0.3-0.2-0.4-0.3c-0.1-0.1-0.2-0.3-0.3-0.4c-0.1-0.2-0.1-0.3-0.1-0.5   s0-0.4,0.1-0.5c0.1-0.2,0.2-0.3,0.3-0.4c0.1-0.1,0.3-0.2,0.4-0.3c0.2-0.1,0.3-0.1,0.5-0.1s0.4,0,0.5,0.1c0.2,0.1,0.3,0.2,0.4,0.3   c0.1,0.1,0.2,0.3,0.3,0.4C137.9,150.5,137.9,150.6,137.9,150.8z M137.5,154.3v10.9h-1.9v-10.9H137.5z"/>
	<path class="st0" d="M148.8,165.2H148c-0.2,0-0.3,0-0.5-0.1c-0.1-0.1-0.2-0.2-0.2-0.4l-0.2-1c-0.3,0.3-0.6,0.5-0.8,0.7   c-0.3,0.2-0.6,0.4-0.9,0.5s-0.6,0.2-1,0.3c-0.3,0.1-0.7,0.1-1.1,0.1c-0.4,0-0.8-0.1-1.2-0.2c-0.4-0.1-0.7-0.3-1-0.5   c-0.3-0.2-0.5-0.5-0.7-0.9c-0.2-0.4-0.2-0.8-0.2-1.3c0-0.4,0.1-0.8,0.4-1.2c0.2-0.4,0.6-0.8,1.1-1.1s1.2-0.6,2.1-0.8   c0.9-0.2,1.9-0.3,3.1-0.3v-0.9c0-0.9-0.2-1.5-0.5-1.9c-0.4-0.4-0.9-0.7-1.6-0.7c-0.5,0-0.9,0.1-1.2,0.2s-0.6,0.3-0.8,0.4   s-0.4,0.3-0.6,0.4c-0.2,0.1-0.3,0.2-0.5,0.2c-0.1,0-0.2,0-0.3-0.1s-0.2-0.2-0.2-0.3l-0.3-0.6c0.6-0.6,1.3-1,1.9-1.3   s1.5-0.4,2.3-0.4c0.6,0,1.2,0.1,1.6,0.3c0.5,0.2,0.9,0.5,1.2,0.8c0.3,0.4,0.6,0.8,0.7,1.3c0.2,0.5,0.2,1.1,0.2,1.7V165.2z    M143.9,164c0.3,0,0.6,0,0.9-0.1c0.3-0.1,0.5-0.2,0.8-0.3c0.2-0.1,0.5-0.3,0.7-0.5c0.2-0.2,0.4-0.4,0.7-0.6v-2.3   c-0.9,0-1.6,0.1-2.2,0.2c-0.6,0.1-1.1,0.3-1.5,0.4c-0.4,0.2-0.7,0.4-0.8,0.6c-0.2,0.2-0.3,0.5-0.3,0.8c0,0.3,0,0.5,0.1,0.7   c0.1,0.2,0.2,0.4,0.4,0.5s0.3,0.2,0.6,0.3C143.4,164,143.6,164,143.9,164z"/>
	<path class="st0" d="M158,156.1c-0.1,0.2-0.2,0.2-0.4,0.2c-0.1,0-0.2,0-0.4-0.1c-0.1-0.1-0.3-0.2-0.5-0.3c-0.2-0.1-0.4-0.2-0.7-0.3   c-0.3-0.1-0.6-0.1-1-0.1c-0.3,0-0.6,0-0.9,0.1c-0.3,0.1-0.5,0.2-0.7,0.3s-0.3,0.3-0.4,0.5c-0.1,0.2-0.1,0.4-0.1,0.6   c0,0.3,0.1,0.5,0.2,0.7c0.2,0.2,0.4,0.3,0.6,0.5c0.3,0.1,0.6,0.3,0.9,0.4c0.3,0.1,0.7,0.2,1,0.3s0.7,0.3,1,0.4   c0.3,0.1,0.6,0.3,0.9,0.5c0.3,0.2,0.5,0.5,0.6,0.8c0.2,0.3,0.2,0.7,0.2,1.1c0,0.5-0.1,1-0.3,1.4c-0.2,0.4-0.4,0.8-0.8,1.1   c-0.4,0.3-0.8,0.6-1.3,0.7c-0.5,0.2-1.1,0.3-1.8,0.3c-0.8,0-1.5-0.1-2.1-0.4c-0.6-0.2-1.1-0.6-1.6-1l0.5-0.7   c0.1-0.1,0.1-0.2,0.2-0.2c0.1,0,0.2-0.1,0.3-0.1s0.3,0.1,0.4,0.2s0.3,0.2,0.5,0.3c0.2,0.1,0.5,0.2,0.7,0.3s0.7,0.2,1.1,0.2   c0.4,0,0.7,0,1-0.1c0.3-0.1,0.5-0.2,0.7-0.4s0.3-0.4,0.4-0.6s0.1-0.4,0.1-0.7c0-0.3-0.1-0.5-0.2-0.7c-0.2-0.2-0.4-0.4-0.6-0.5   c-0.3-0.1-0.6-0.3-0.9-0.4c-0.3-0.1-0.7-0.2-1-0.3c-0.4-0.1-0.7-0.2-1-0.4s-0.6-0.3-0.9-0.6s-0.5-0.5-0.6-0.8   c-0.2-0.3-0.2-0.7-0.2-1.2c0-0.4,0.1-0.8,0.3-1.2s0.4-0.7,0.8-1c0.3-0.3,0.7-0.5,1.2-0.7c0.5-0.2,1-0.3,1.6-0.3   c0.7,0,1.4,0.1,1.9,0.3c0.6,0.2,1.1,0.5,1.5,0.9L158,156.1z"/>
</g>
</svg>