<?xml version="1.0" encoding="UTF-8"?>
<!-- Generator: Adobe Illustrator 16.0.0, SVG Export Plug-In . SVG Version: 6.00 Build 0)  -->
<!DOCTYPE svg PUBLIC "-//W3C//DTD SVG 1.1//EN" "http://www.w3.org/Graphics/SVG/1.1/DTD/svg11.dtd">
<svg version="1.1" id="Layer_1" xmlns="http://www.w3.org/2000/svg" xmlns:xlink="http://www.w3.org/1999/xlink" x="0px" y="0px" width="413.246px" height="413.42px" viewBox="268.584 61.525 413.246 413.42" enable-background="new 268.584 61.525 413.246 413.42" xml:space="preserve">
<path fill="#CBCBCB" d="M475.294,61.525c-114.161,0-206.71,92.549-206.71,206.71c0,114.162,92.549,206.71,206.71,206.71  s206.536-92.549,206.536-206.71C681.83,153.9,589.281,61.525,475.294,61.525z M524.096,204.27h-31.022  c-3.66,0-7.669,4.88-7.669,11.329v22.484h38.867l-5.928,31.895h-32.939v96.035h-36.603v-96.035h-33.29v-31.895h33.29v-18.824  c0-27.015,18.649-48.976,44.444-48.976h31.023v33.987H524.096L524.096,204.27z"/>
</svg>