<?xml version="1.0" encoding="UTF-8"?>
<!-- Generator: Adobe Illustrator 16.0.0, SVG Export Plug-In . SVG Version: 6.00 Build 0)  -->
<!DOCTYPE svg PUBLIC "-//W3C//DTD SVG 1.1//EN" "http://www.w3.org/Graphics/SVG/1.1/DTD/svg11.dtd">
<svg version="1.1" id="Layer_1" xmlns="http://www.w3.org/2000/svg" xmlns:xlink="http://www.w3.org/1999/xlink" x="0px" y="0px" width="409.934px" height="409.935px" viewBox="269.281 68.671 409.934 409.935" enable-background="new 269.281 68.671 409.934 409.935" xml:space="preserve">
<circle fill="#CBCBCB" cx="474.248" cy="273.638" r="204.967"/>
<path fill="#FFFFFF" d="M577.777,220.305c0.175,2.266,0.175,4.531,0.175,6.972c0,70.588-53.856,152.157-152.157,152.157  c-30.152,0-58.388-8.889-81.917-24.053c4.183,0.523,8.366,0.697,12.724,0.697c25.098,0,48.104-8.54,66.405-22.832  c-23.354-0.522-43.05-15.86-50.022-37.124c3.312,0.696,6.623,0.872,10.109,0.872c4.88,0,9.586-0.697,14.117-1.918  c-24.4-4.881-42.875-26.492-42.875-52.462c0-0.174,0-0.523,0-0.697c7.146,4.009,15.512,6.449,24.227,6.623  c-14.292-9.586-23.878-25.969-23.878-44.619c0-9.76,2.614-18.998,7.32-26.841c26.318,32.418,65.708,53.682,110.153,55.948  c-0.872-3.834-1.396-8.018-1.396-12.2c0-29.456,23.878-53.508,53.509-53.508c15.337,0,29.279,6.449,39.041,16.906  c12.199-2.44,23.703-6.797,33.986-12.897c-4.009,12.549-12.549,23.006-23.528,29.629c10.806-1.22,21.089-4.183,30.675-8.366  C597.299,203.398,588.235,212.811,577.777,220.305z"/>
</svg>