<?xml version="1.0" encoding="UTF-8"?>
<!-- Generator: Adobe Illustrator 16.0.0, SVG Export Plug-In . SVG Version: 6.00 Build 0)  -->
<!DOCTYPE svg PUBLIC "-//W3C//DTD SVG 1.1//EN" "http://www.w3.org/Graphics/SVG/1.1/DTD/svg11.dtd">
<svg version="1.1" id="Capa_1" xmlns="http://www.w3.org/2000/svg" xmlns:xlink="http://www.w3.org/1999/xlink" x="0px" y="0px" width="25px" height="25px" viewBox="0 0 25 25" enable-background="new 0 0 25 25" xml:space="preserve">
<path fill="#FFFFFF" d="M19.795,8.76c0.006,0.161,0.011,0.322,0.011,0.486c0,4.973-3.786,10.709-10.709,10.709  c-2.126,0-4.104-0.623-5.77-1.689c0.294,0.033,0.594,0.052,0.897,0.052c1.764,0,3.386-0.602,4.675-1.612  c-1.648-0.029-3.038-1.118-3.518-2.613c0.231,0.044,0.466,0.067,0.709,0.067c0.343,0,0.675-0.047,0.991-0.133  c-1.722-0.345-3.019-1.866-3.019-3.689c0-0.016,0-0.032,0-0.049c0.507,0.283,1.088,0.453,1.705,0.472  c-1.01-0.675-1.676-1.827-1.676-3.133c0-0.69,0.187-1.337,0.511-1.893c1.856,2.277,4.63,3.775,7.758,3.933  c-0.064-0.275-0.098-0.563-0.098-0.857c0-2.079,1.686-3.765,3.764-3.765c1.083,0,2.062,0.457,2.747,1.189  c0.858-0.169,1.665-0.482,2.391-0.913c-0.282,0.878-0.878,1.615-1.655,2.082c0.762-0.092,1.486-0.293,2.161-0.592  C21.168,7.565,20.53,8.228,19.795,8.76"/>
</svg>