<?xml version="1.0" encoding="UTF-8"?>
<!-- Generator: Adobe Illustrator 16.0.0, SVG Export Plug-In . SVG Version: 6.00 Build 0)  -->
<!DOCTYPE svg PUBLIC "-//W3C//DTD SVG 1.1//EN" "http://www.w3.org/Graphics/SVG/1.1/DTD/svg11.dtd">
<svg version="1.1" id="Capa_1" xmlns="http://www.w3.org/2000/svg" xmlns:xlink="http://www.w3.org/1999/xlink" x="0px" y="0px" width="32px" height="32px" viewBox="0 0 32 32" enable-background="new 0 0 32 32" xml:space="preserve">
<g id="PathID_37_1_" transform="matrix(0.710445, 0, 0, 0.710445, 260.8, 303.6)">
	<path d="M-332.375-403.547v13.443c-0.115,1.119-0.289,1.9-0.518,2.342c-0.649,0.904-1.607,1.387-2.874,1.443h-16.984   c-1.742,0-2.878-0.481-3.403-1.443c-0.412-0.657-0.617-1.438-0.617-2.342v-13.443c0.124-2.5,1.464-3.749,4.021-3.749h0.234   l0.112,0.123c2.17,2.064,4.768,3.157,7.794,3.281c3.157-0.14,5.75-1.233,7.781-3.281l0.1-0.123h0.407   C-333.804-407.296-332.49-406.046-332.375-403.547 M-337.061-411.193l-1.222,1.665c-0.099,0-0.147,0.062-0.147,0.185l-0.125,0.111   l-0.195,0.123c-1.563,1.694-3.516,2.541-5.859,2.541c-2.286,0-4.28-0.847-5.981-2.541l-0.234-0.234   c0-0.123-0.045-0.185-0.135-0.185v-0.111c-0.353-0.329-0.728-0.847-1.122-1.555c-0.584-1.267-0.876-2.537-0.876-3.81   c0-2.188,0.79-4.169,2.368-5.945h0.186c1.579-1.579,3.511-2.368,5.797-2.368c2.344,0,4.334,0.79,5.97,2.368   c1.621,1.677,2.43,3.659,2.43,5.945c0,1.405-0.283,2.627-0.851,3.663v0.148"/>
</g>
</svg>