<?xml version="1.0" encoding="UTF-8"?>
<!-- Generator: Adobe Illustrator 16.0.0, SVG Export Plug-In . SVG Version: 6.00 Build 0)  -->
<!DOCTYPE svg PUBLIC "-//W3C//DTD SVG 1.1//EN" "http://www.w3.org/Graphics/SVG/1.1/DTD/svg11.dtd">
<svg version="1.1" id="Capa_1" xmlns="http://www.w3.org/2000/svg" xmlns:xlink="http://www.w3.org/1999/xlink" x="0px" y="0px" width="32px" height="32px" viewBox="0 0 32 32" enable-background="new 0 0 32 32" xml:space="preserve">
<g id="PathID_55_1_" transform="matrix(0.772173, 0, 0, 0.772173, 596.9, 348.75)">
	<path d="M-739.446-442.131l-6.088,0.897l0.756,5.052l6.019-0.826L-739.446-442.131 M-738.072-445.04l3.876,27.61   c0.047,0.094,0.023,0.182-0.07,0.268l-0.21,0.139l-5.46,0.769l-0.755,0.07h-0.489l-1.176,0.07   c-0.692,0.047-1.129,0.113-1.315,0.197c-0.047-0.046-0.07-0.111-0.07-0.197l-3.865-27.54c-0.047-0.094-0.047-0.182,0-0.268   l0.268-0.139l8.858-1.246l0.268,0.07L-738.072-445.04 M-747.955-445.937c0.046,0.047,0.07,0.14,0.07,0.28v29.542v0.129   c-0.784-0.039-1.614-0.058-2.49-0.058c-1.987,0-3.671,0.042-5.052,0.128l-1.385,0.14h-0.407l-0.699-0.071l-0.07-0.07   c-0.085-0.047-0.128-0.113-0.128-0.197v-29.543c0-0.14,0.042-0.233,0.128-0.28c0.047-0.093,0.14-0.14,0.279-0.14h9.476   C-748.142-446.077-748.048-446.03-747.955-445.937 M-749.758-442.817h-6.495v5.46h6.495V-442.817 M-759.432-443.993v27.878   l-0.07,0.129c-1.064-0.039-2.309-0.058-3.737-0.058c-1.847,0-3.415,0.042-4.703,0.128l-0.966,0.14l-0.14-0.14   c-0.047-0.047-0.07-0.113-0.07-0.197v-27.879c0-0.093,0.023-0.163,0.07-0.209c0.093-0.094,0.186-0.14,0.28-0.14h8.917   c0.139,0,0.232,0.046,0.279,0.14C-759.479-444.156-759.432-444.086-759.432-443.993 M-761.236-441.304h-6.158v5.122h6.158V-441.304    M-750.655-420.888c0-0.651-0.229-1.207-0.687-1.663c-0.465-0.467-1.021-0.699-1.666-0.699c-0.644,0-1.195,0.233-1.653,0.699   c-0.465,0.458-0.698,1.012-0.698,1.663c0,0.645,0.233,1.196,0.698,1.654c0.458,0.464,1.009,0.698,1.653,0.698   c0.69,0,1.246-0.234,1.666-0.698C-750.884-419.691-750.655-420.243-750.655-420.888 M-762.622-419.233   c0.466-0.458,0.699-1.009,0.699-1.654c0-0.651-0.233-1.207-0.699-1.663c-0.458-0.467-1.009-0.699-1.653-0.699   c-0.644,0-1.199,0.233-1.664,0.699c-0.458,0.458-0.687,1.012-0.687,1.663c0,0.645,0.229,1.196,0.687,1.654   c0.465,0.464,1.021,0.698,1.664,0.698C-763.63-418.535-763.08-418.769-762.622-419.233 M-737.723-422.551   c-0.458-0.467-1.012-0.699-1.664-0.699c-0.642,0-1.194,0.233-1.652,0.699c-0.467,0.458-0.698,1.012-0.698,1.663   c0,0.645,0.231,1.196,0.698,1.654c0.458,0.464,1.008,0.698,1.652,0.698c0.653,0,1.206-0.234,1.664-0.698   c0.458-0.458,0.688-1.009,0.688-1.654C-737.038-421.539-737.266-422.094-737.723-422.551"/>
</g>
</svg>