<?xml version="1.0" encoding="UTF-8"?>
<!-- Generator: Adobe Illustrator 16.0.0, SVG Export Plug-In . SVG Version: 6.00 Build 0)  -->
<!DOCTYPE svg PUBLIC "-//W3C//DTD SVG 1.1//EN" "http://www.w3.org/Graphics/SVG/1.1/DTD/svg11.dtd">
<svg version="1.1" id="Layer_1" xmlns="http://www.w3.org/2000/svg" xmlns:xlink="http://www.w3.org/1999/xlink" x="0px" y="0px" width="413.247px" height="413.42px" viewBox="268.235 71.111 413.247 413.42" enable-background="new 268.235 71.111 413.247 413.42" xml:space="preserve">
<path fill="#CBCBCB" d="M474.945,71.111c-114.161,0-206.71,92.549-206.71,206.71c0,114.162,92.549,206.71,206.71,206.71  s206.536-92.549,206.536-206.71C681.481,163.66,588.933,71.111,474.945,71.111z M489.063,326.798  c-13.245-1.046-18.823-7.669-29.106-13.77c-5.751,29.979-12.723,58.562-33.289,73.551c-6.449-45.315,9.411-79.303,16.558-115.381  c-12.549-20.915,1.568-63.268,27.888-52.811c32.418,12.897-28.063,78.083,12.549,86.101c42.353,8.54,59.606-73.377,33.29-100.044  c-37.821-38.519-110.327-0.871-101.438,54.205c2.093,13.42,16.035,17.604,5.578,36.078c-24.228-5.402-31.547-24.575-30.501-50.021  c1.568-41.83,37.473-70.937,73.551-74.946c45.664-5.054,88.54,16.732,94.467,59.782  C565.055,277.996,537.865,330.632,489.063,326.798z"/>
</svg>