<?xml version="1.0" encoding="UTF-8"?>
<!-- Generator: Adobe Illustrator 16.0.0, SVG Export Plug-In . SVG Version: 6.00 Build 0)  -->
<!DOCTYPE svg PUBLIC "-//W3C//DTD SVG 1.1//EN" "http://www.w3.org/Graphics/SVG/1.1/DTD/svg11.dtd">
<svg version="1.1" id="Capa_1" xmlns="http://www.w3.org/2000/svg" xmlns:xlink="http://www.w3.org/1999/xlink" x="0px" y="0px" width="25px" height="25px" viewBox="0 0 25 25" enable-background="new 0 0 25 25" xml:space="preserve">
<path fill="#FFFFFF" d="M21.673,19.497c0,1.202-0.975,2.177-2.182,2.177H5.508c-1.205,0-2.181-0.975-2.181-2.177V5.502  c0-1.201,0.976-2.175,2.181-2.175h13.984c1.207,0,2.182,0.974,2.182,2.175V19.497z M18.104,12.521c0,3.07-2.504,5.567-5.582,5.567  s-5.581-2.498-5.581-5.567c0-0.509,0.069-1.004,0.2-1.473H5.423v7.978c0,0.284,0.228,0.514,0.513,0.514h13.17  c0.284,0,0.515-0.23,0.515-0.514v-7.978h-1.717C18.034,11.517,18.104,12.012,18.104,12.521 M16.585,8.916h2.479  c0.285,0,0.516-0.23,0.516-0.512V5.928c0-0.282-0.23-0.512-0.516-0.512h-2.479c-0.285,0-0.515,0.23-0.515,0.512v2.476  C16.07,8.686,16.3,8.916,16.585,8.916 M12.522,16.041c1.949,0,3.528-1.576,3.528-3.521c0-1.944-1.579-3.519-3.528-3.519  c-1.949,0-3.529,1.575-3.529,3.519C8.993,14.465,10.573,16.041,12.522,16.041"/>
</svg>