<?xml version="1.0" encoding="UTF-8"?>
<!-- Generator: Adobe Illustrator 22.1.0, SVG Export Plug-In . SVG Version: 6.00 Build 0)  -->
<svg version="1.1" id="Capa_1" xmlns="http://www.w3.org/2000/svg" xmlns:xlink="http://www.w3.org/1999/xlink" x="0px" y="0px" viewBox="0 0 200 200" style="enable-background:new 0 0 200 200;" xml:space="preserve">
<style type="text/css">
	.st0{fill:#333333;}
	.st1{enable-background:new    ;}
</style>
<title>icono-colecciones</title>
<path class="st0" d="M129,15.8H89.4c-2.7,0-4.9,2.2-4.9,4.9v0.4H71c-2.7,0-4.9,2.2-4.9,4.9c0,0,0,0,0,0v7.9  c-0.1,0.7,0.5,1.4,1.2,1.4c0.7,0.1,1.4-0.5,1.4-1.2c0-0.1,0-0.2,0-0.2V26c0-1.2,1-2.2,2.2-2.2c0,0,0,0,0,0h13.5v3.7H73.8  c-0.7,0-1.3,0.6-1.3,1.3v63.3c0,0.7,0.6,1.3,1.3,1.3c0,0,0,0,0,0h16c0.7,0.1,1.4-0.5,1.4-1.2c0.1-0.7-0.5-1.4-1.2-1.4  c-0.1,0-0.2,0-0.2,0H75.1V30.1h9.4v46.1c0,2.7,2.2,4.9,4.9,4.9h31.2v9.7H96c-0.7-0.1-1.4,0.5-1.4,1.2c-0.1,0.7,0.5,1.4,1.2,1.4  c0.1,0,0.2,0,0.2,0h25.9c0.7,0,1.3-0.6,1.3-1.3l0,0V81.1h3.8v19.6c0,1.2-1,2.2-2.2,2.2H71c-1.2,0-2.2-1-2.2-2.2V40.1  c0.1-0.7-0.5-1.4-1.2-1.4c-0.7-0.1-1.4,0.5-1.4,1.2c0,0.1,0,0.2,0,0.2v60.6c0,2.7,2.2,4.9,4.9,4.9h53.8c2.7,0,4.9-2.2,4.9-4.9V81.1  c2.4-0.3,4.2-2.4,4.2-4.8V40.1c0.1-0.7-0.5-1.4-1.2-1.4c-0.7-0.1-1.4,0.5-1.4,1.2c0,0.1,0,0.2,0,0.2v36.2c0,1.2-1,2.2-2.2,2.2  c0,0,0,0,0,0H89.4c-1.2,0-2.2-1-2.2-2.2V27.3h44.1v6.6c-0.1,0.7,0.5,1.4,1.2,1.4c0.7,0.1,1.4-0.5,1.4-1.2c0-0.1,0-0.2,0-0.2V20.7  C133.9,18,131.7,15.8,129,15.8C129,15.8,129,15.8,129,15.8z M87.2,24.7v-4c0-1.2,1-2.2,2.2-2.2H129c1.2,0,2.2,1,2.2,2.2c0,0,0,0,0,0  v4H87.2z"/>
<path class="st0" d="M91,44.5h12c0.7,0,1.3-0.6,1.3-1.3v-12c0-0.7-0.6-1.3-1.3-1.4c0,0,0,0,0,0H91c-0.7,0-1.3,0.6-1.3,1.3v0v12  C89.7,43.9,90.2,44.5,91,44.5C91,44.5,91,44.5,91,44.5z M92.3,32.5h9.4v9.4h-9.4L92.3,32.5z"/>
<path class="st0" d="M126.5,30.3h-17.7c-0.7,0-1.3,0.6-1.3,1.3c0,0.7,0.6,1.3,1.3,1.3h17.7c0.7,0,1.3-0.6,1.3-1.3  C127.9,30.9,127.3,30.3,126.5,30.3z"/>
<path class="st0" d="M126.5,36.2h-17.7c-0.7,0-1.3,0.6-1.3,1.3c0,0.7,0.6,1.3,1.3,1.3c0,0,0,0,0,0h17.7c0.7,0,1.3-0.6,1.3-1.3  C127.9,36.8,127.3,36.2,126.5,36.2z"/>
<path class="st0" d="M126.5,41.8h-17.7c-0.7,0-1.3,0.6-1.3,1.3c0,0.7,0.6,1.3,1.3,1.3h17.7c0.7,0,1.3-0.6,1.3-1.3  C127.9,42.4,127.3,41.8,126.5,41.8z"/>
<path class="st0" d="M126.5,48H91c-0.7-0.1-1.4,0.5-1.4,1.2c-0.1,0.7,0.5,1.4,1.2,1.4c0.1,0,0.2,0,0.2,0h35.6  c0.7,0.1,1.4-0.5,1.4-1.2c0.1-0.7-0.5-1.4-1.2-1.4C126.7,48,126.6,48,126.5,48L126.5,48z"/>
<path class="st0" d="M126.5,54H91c-0.7,0-1.3,0.6-1.3,1.3c0,0.7,0.6,1.3,1.3,1.3h35.6c0.7,0,1.3-0.6,1.3-1.3  C127.9,54.6,127.3,54,126.5,54L126.5,54z"/>
<path class="st0" d="M126.5,60H91c-0.7-0.1-1.4,0.5-1.4,1.2c-0.1,0.7,0.5,1.4,1.2,1.4c0.1,0,0.2,0,0.2,0h35.6  c0.7,0.1,1.4-0.5,1.4-1.2c0.1-0.7-0.5-1.4-1.2-1.4C126.7,60,126.6,60,126.5,60L126.5,60z"/>
<g class="st1">
	<path class="st0" d="M63.6,124c0.1,0,0.2,0.1,0.3,0.3l8.9,11.6c0-0.2,0-0.4,0-0.5c0-0.2,0-0.3,0-0.5v-10.9h1.8v15.4h-1.1   c-0.2,0-0.3,0-0.4-0.1s-0.2-0.2-0.3-0.3l-8.9-11.6c0,0.2,0,0.4,0,0.5c0,0.2,0,0.3,0,0.5v11h-1.8v-15.4h1.1   C63.4,123.9,63.5,123.9,63.6,124z"/>
</g>
<g class="st1">
	<path class="st0" d="M86.1,139.3h-0.9c-0.2,0-0.3,0-0.5-0.1s-0.2-0.2-0.2-0.4l-0.2-1c-0.3,0.3-0.6,0.5-0.8,0.7   c-0.3,0.2-0.6,0.4-0.9,0.5c-0.3,0.1-0.6,0.2-1,0.3c-0.3,0.1-0.7,0.1-1.1,0.1c-0.4,0-0.8-0.1-1.2-0.2c-0.4-0.1-0.7-0.3-1-0.5   c-0.3-0.2-0.5-0.5-0.7-0.9c-0.2-0.4-0.2-0.8-0.2-1.3c0-0.4,0.1-0.8,0.4-1.2c0.2-0.4,0.6-0.8,1.1-1.1s1.2-0.6,2.1-0.8   s1.9-0.3,3.1-0.3v-0.9c0-0.9-0.2-1.5-0.5-1.9c-0.4-0.4-0.9-0.7-1.6-0.7c-0.5,0-0.9,0.1-1.2,0.2s-0.6,0.3-0.8,0.4   c-0.2,0.1-0.4,0.3-0.6,0.4c-0.2,0.1-0.3,0.2-0.5,0.2c-0.1,0-0.2,0-0.3-0.1c-0.1-0.1-0.2-0.2-0.2-0.3l-0.3-0.6   c0.6-0.6,1.3-1,1.9-1.3s1.5-0.4,2.3-0.4c0.6,0,1.2,0.1,1.6,0.3c0.5,0.2,0.9,0.5,1.2,0.8c0.3,0.4,0.6,0.8,0.7,1.3   c0.2,0.5,0.2,1.1,0.2,1.7V139.3z M81.2,138.2c0.3,0,0.6,0,0.9-0.1s0.5-0.2,0.8-0.3c0.2-0.1,0.5-0.3,0.7-0.5   c0.2-0.2,0.4-0.4,0.7-0.6v-2.3c-0.9,0-1.6,0.1-2.2,0.2c-0.6,0.1-1.1,0.3-1.5,0.4c-0.4,0.2-0.7,0.4-0.8,0.6   c-0.2,0.2-0.3,0.5-0.3,0.8c0,0.3,0,0.5,0.1,0.7c0.1,0.2,0.2,0.4,0.4,0.5c0.2,0.1,0.3,0.2,0.6,0.3C80.7,138.1,80.9,138.2,81.2,138.2   z"/>
</g>
<g class="st1">
	<path class="st0" d="M87.3,128.4h1.6c0.2,0,0.3,0,0.4,0.1s0.2,0.2,0.2,0.3l2.8,7c0.1,0.3,0.2,0.5,0.2,0.8c0.1,0.3,0.1,0.5,0.2,0.8   c0.1-0.3,0.1-0.5,0.2-0.8c0.1-0.3,0.1-0.5,0.2-0.8l2.8-7c0-0.1,0.1-0.2,0.2-0.3c0.1-0.1,0.2-0.1,0.4-0.1h1.5l-4.4,10.9h-1.7   L87.3,128.4z"/>
</g>
<g class="st1">
	<path class="st0" d="M103.7,128.3c0.7,0,1.3,0.1,1.8,0.3s1,0.5,1.4,0.9c0.4,0.4,0.7,0.9,0.9,1.5c0.2,0.6,0.3,1.3,0.3,2.1   c0,0.3,0,0.5-0.1,0.6s-0.2,0.2-0.4,0.2h-7.3c0,0.7,0.1,1.3,0.3,1.8c0.2,0.5,0.4,0.9,0.7,1.3c0.3,0.3,0.7,0.6,1.1,0.8   s0.9,0.3,1.4,0.3c0.5,0,0.9-0.1,1.2-0.2c0.3-0.1,0.6-0.2,0.9-0.4c0.3-0.1,0.5-0.2,0.6-0.4c0.2-0.1,0.3-0.2,0.4-0.2   c0.2,0,0.3,0.1,0.4,0.2l0.5,0.7c-0.2,0.3-0.5,0.5-0.9,0.7s-0.7,0.4-1.1,0.5c-0.4,0.1-0.8,0.2-1.2,0.3c-0.4,0.1-0.8,0.1-1.2,0.1   c-0.8,0-1.4-0.1-2.1-0.4c-0.6-0.3-1.2-0.6-1.6-1.1c-0.5-0.5-0.8-1.1-1.1-1.8s-0.4-1.6-0.4-2.5c0-0.8,0.1-1.5,0.4-2.1   c0.2-0.7,0.6-1.2,1-1.7c0.4-0.5,1-0.9,1.6-1.1C102.2,128.4,103,128.3,103.7,128.3z M103.8,129.7c-0.9,0-1.7,0.3-2.2,0.8   c-0.5,0.5-0.9,1.3-1,2.2h5.9c0-0.4-0.1-0.9-0.2-1.2c-0.1-0.4-0.3-0.7-0.5-1c-0.2-0.3-0.5-0.5-0.9-0.6S104.2,129.7,103.8,129.7z"/>
	<path class="st0" d="M114.4,128.2c0.5,0,0.9,0.1,1.3,0.2c0.4,0.1,0.8,0.3,1.1,0.5h3v0.7c0,0.2-0.2,0.4-0.5,0.5l-1.2,0.2   c0.2,0.5,0.4,1,0.4,1.6c0,0.5-0.1,1-0.3,1.4c-0.2,0.4-0.5,0.8-0.9,1.1s-0.8,0.5-1.3,0.7s-1,0.2-1.6,0.2c-0.5,0-1-0.1-1.4-0.2   c-0.2,0.1-0.4,0.3-0.5,0.5c-0.1,0.2-0.2,0.3-0.2,0.5c0,0.3,0.1,0.5,0.3,0.6c0.2,0.1,0.5,0.2,0.8,0.3s0.7,0.1,1.2,0.1   c0.4,0,0.9,0,1.3,0s0.9,0,1.3,0.1s0.8,0.2,1.2,0.4s0.6,0.4,0.8,0.8c0.2,0.3,0.3,0.7,0.3,1.2c0,0.5-0.1,0.9-0.3,1.4   c-0.2,0.4-0.6,0.8-1,1.2c-0.4,0.3-1,0.6-1.6,0.8c-0.6,0.2-1.3,0.3-2.1,0.3c-0.8,0-1.5-0.1-2.1-0.2c-0.6-0.2-1.1-0.4-1.5-0.6   c-0.4-0.3-0.7-0.6-0.9-0.9s-0.3-0.7-0.3-1.1c0-0.5,0.2-1,0.5-1.4c0.3-0.4,0.8-0.7,1.4-0.9c-0.3-0.1-0.6-0.3-0.7-0.6s-0.3-0.6-0.3-1   c0-0.2,0-0.3,0.1-0.5c0.1-0.2,0.1-0.3,0.3-0.5c0.1-0.2,0.3-0.3,0.4-0.5c0.2-0.2,0.4-0.3,0.6-0.4c-0.5-0.3-1-0.7-1.3-1.2   c-0.3-0.5-0.5-1.1-0.5-1.7c0-0.5,0.1-1,0.3-1.4c0.2-0.4,0.5-0.8,0.9-1.1c0.4-0.3,0.8-0.5,1.3-0.7   C113.2,128.3,113.8,128.2,114.4,128.2z M117.8,139.9c0-0.3-0.1-0.5-0.2-0.7s-0.4-0.3-0.6-0.4c-0.3-0.1-0.6-0.2-0.9-0.2   c-0.3,0-0.7-0.1-1.1-0.1s-0.8,0-1.1,0s-0.8,0-1.1-0.1c-0.4,0.2-0.7,0.4-1,0.7s-0.4,0.6-0.4,1c0,0.2,0.1,0.5,0.2,0.7   c0.1,0.2,0.3,0.4,0.6,0.5c0.3,0.2,0.6,0.3,1,0.4c0.4,0.1,0.9,0.1,1.4,0.1c0.5,0,1,0,1.4-0.1c0.4-0.1,0.8-0.2,1-0.4s0.5-0.4,0.7-0.6   C117.7,140.4,117.8,140.2,117.8,139.9z M114.4,134c0.4,0,0.7-0.1,1-0.2s0.5-0.3,0.7-0.5c0.2-0.2,0.4-0.4,0.5-0.7   c0.1-0.3,0.2-0.6,0.2-0.9c0-0.7-0.2-1.2-0.6-1.6c-0.4-0.4-1-0.6-1.8-0.6c-0.8,0-1.4,0.2-1.8,0.6s-0.6,0.9-0.6,1.6   c0,0.3,0.1,0.6,0.2,0.9c0.1,0.3,0.3,0.5,0.5,0.7c0.2,0.2,0.4,0.3,0.7,0.5S114,134,114.4,134z"/>
	<path class="st0" d="M129.7,139.3h-0.9c-0.2,0-0.3,0-0.5-0.1c-0.1-0.1-0.2-0.2-0.2-0.4l-0.2-1c-0.3,0.3-0.6,0.5-0.8,0.7   c-0.3,0.2-0.6,0.4-0.9,0.5s-0.6,0.2-1,0.3c-0.3,0.1-0.7,0.1-1.1,0.1c-0.4,0-0.8-0.1-1.2-0.2c-0.4-0.1-0.7-0.3-1-0.5   c-0.3-0.2-0.5-0.5-0.7-0.9c-0.2-0.4-0.2-0.8-0.2-1.3c0-0.4,0.1-0.8,0.4-1.2c0.2-0.4,0.6-0.8,1.1-1.1s1.2-0.6,2.1-0.8   c0.9-0.2,1.9-0.3,3.1-0.3v-0.9c0-0.9-0.2-1.5-0.5-1.9c-0.4-0.4-0.9-0.7-1.6-0.7c-0.5,0-0.9,0.1-1.2,0.2s-0.6,0.3-0.8,0.4   s-0.4,0.3-0.6,0.4c-0.2,0.1-0.3,0.2-0.5,0.2c-0.1,0-0.2,0-0.3-0.1s-0.2-0.2-0.2-0.3l-0.3-0.6c0.6-0.6,1.3-1,1.9-1.3   s1.5-0.4,2.3-0.4c0.6,0,1.2,0.1,1.6,0.3c0.5,0.2,0.9,0.5,1.2,0.8c0.3,0.4,0.6,0.8,0.7,1.3c0.2,0.5,0.2,1.1,0.2,1.7V139.3z    M124.8,138.2c0.3,0,0.6,0,0.9-0.1c0.3-0.1,0.5-0.2,0.8-0.3c0.2-0.1,0.5-0.3,0.7-0.5c0.2-0.2,0.4-0.4,0.7-0.6v-2.3   c-0.9,0-1.6,0.1-2.2,0.2c-0.6,0.1-1.1,0.3-1.5,0.4c-0.4,0.2-0.7,0.4-0.8,0.6c-0.2,0.2-0.3,0.5-0.3,0.8c0,0.3,0,0.5,0.1,0.7   c0.1,0.2,0.2,0.4,0.4,0.5s0.3,0.2,0.6,0.3C124.3,138.1,124.5,138.2,124.8,138.2z"/>
	<path class="st0" d="M132.6,139.3v-10.9h1.1c0.2,0,0.4,0,0.4,0.1c0.1,0.1,0.1,0.2,0.2,0.4l0.1,1.7c0.4-0.8,0.8-1.4,1.4-1.8   c0.5-0.4,1.2-0.6,1.9-0.6c0.3,0,0.6,0,0.8,0.1s0.5,0.2,0.7,0.3l-0.2,1.4c0,0.2-0.2,0.3-0.3,0.3c-0.1,0-0.3,0-0.5-0.1   s-0.5-0.1-0.9-0.1c-0.7,0-1.2,0.2-1.7,0.6s-0.8,1-1.1,1.7v6.9H132.6z"/>
</g>
<g class="st1">
	<path class="st0" d="M28.7,168.9v-14.6h1.1c0.3,0,0.4,0.1,0.5,0.4l0.2,1.3c0.5-0.6,1-1,1.6-1.4c0.6-0.3,1.3-0.5,2.1-0.5   c0.6,0,1.2,0.1,1.7,0.4c0.5,0.2,0.9,0.6,1.3,1.1c0.4,0.5,0.6,1.1,0.8,1.7s0.3,1.5,0.3,2.4c0,0.8-0.1,1.6-0.3,2.2   c-0.2,0.7-0.5,1.3-0.9,1.8s-0.9,0.9-1.5,1.2c-0.6,0.3-1.2,0.4-2,0.4c-0.7,0-1.3-0.1-1.7-0.3c-0.5-0.2-0.9-0.5-1.3-0.9v4.8H28.7z    M33.6,155.6c-0.6,0-1.2,0.1-1.6,0.4c-0.5,0.3-0.9,0.7-1.3,1.2v5.3c0.4,0.5,0.7,0.8,1.2,1c0.4,0.2,0.9,0.3,1.4,0.3   c1,0,1.8-0.4,2.3-1.1s0.8-1.8,0.8-3.1c0-0.7-0.1-1.3-0.2-1.8s-0.3-0.9-0.5-1.3s-0.5-0.6-0.9-0.7C34.4,155.7,34,155.6,33.6,155.6z"/>
	<path class="st0" d="M45,154.1c0.8,0,1.5,0.1,2.2,0.4c0.6,0.3,1.2,0.6,1.6,1.1c0.4,0.5,0.8,1.1,1,1.8c0.2,0.7,0.4,1.5,0.4,2.3   c0,0.9-0.1,1.6-0.4,2.3c-0.2,0.7-0.6,1.3-1,1.8c-0.4,0.5-1,0.9-1.6,1.1c-0.6,0.3-1.4,0.4-2.2,0.4s-1.5-0.1-2.2-0.4   c-0.6-0.3-1.2-0.6-1.6-1.1c-0.5-0.5-0.8-1.1-1-1.8c-0.2-0.7-0.4-1.5-0.4-2.3c0-0.9,0.1-1.6,0.4-2.3c0.2-0.7,0.6-1.3,1-1.8   c0.5-0.5,1-0.9,1.6-1.1C43.5,154.2,44.2,154.1,45,154.1z M45,163.8c1.1,0,1.9-0.4,2.4-1.1c0.5-0.7,0.8-1.7,0.8-3   c0-1.3-0.3-2.3-0.8-3c-0.5-0.7-1.3-1.1-2.4-1.1c-0.5,0-1,0.1-1.4,0.3s-0.7,0.5-1,0.8c-0.3,0.4-0.5,0.8-0.6,1.3s-0.2,1.1-0.2,1.7   c0,0.6,0.1,1.2,0.2,1.7s0.3,0.9,0.6,1.3c0.3,0.3,0.6,0.6,1,0.8C44,163.7,44.5,163.8,45,163.8z"/>
	<path class="st0" d="M52.6,165.2v-10.9h1.1c0.2,0,0.4,0,0.4,0.1c0.1,0.1,0.1,0.2,0.2,0.4l0.1,1.7c0.4-0.8,0.8-1.4,1.4-1.8   c0.5-0.4,1.2-0.6,1.9-0.6c0.3,0,0.6,0,0.8,0.1c0.2,0.1,0.5,0.2,0.7,0.3l-0.2,1.4c-0.1,0.2-0.2,0.3-0.3,0.3c-0.1,0-0.3,0-0.5-0.1   s-0.5-0.1-0.9-0.1c-0.7,0-1.2,0.2-1.7,0.6c-0.4,0.4-0.8,1-1.1,1.7v6.9H52.6z"/>
	<path class="st0" d="M72.9,156.2c-0.1,0.1-0.1,0.1-0.2,0.2c-0.1,0-0.1,0.1-0.2,0.1c-0.1,0-0.2,0-0.3-0.1c-0.1-0.1-0.3-0.2-0.5-0.3   s-0.4-0.2-0.7-0.3c-0.3-0.1-0.6-0.1-1-0.1c-0.5,0-1,0.1-1.4,0.3c-0.4,0.2-0.8,0.5-1,0.8c-0.3,0.4-0.5,0.8-0.6,1.3   c-0.1,0.5-0.2,1.1-0.2,1.7c0,0.7,0.1,1.2,0.2,1.8c0.2,0.5,0.4,0.9,0.6,1.3c0.3,0.3,0.6,0.6,1,0.8s0.8,0.3,1.3,0.3   c0.5,0,0.9-0.1,1.2-0.2c0.3-0.1,0.6-0.2,0.8-0.4c0.2-0.1,0.4-0.3,0.5-0.4c0.1-0.1,0.3-0.2,0.4-0.2c0.2,0,0.3,0.1,0.4,0.2l0.5,0.7   c-0.5,0.6-1.1,1-1.8,1.3s-1.5,0.4-2.3,0.4c-0.7,0-1.3-0.1-1.9-0.4c-0.6-0.3-1.1-0.6-1.5-1.1c-0.4-0.5-0.8-1.1-1-1.8   c-0.2-0.7-0.4-1.5-0.4-2.4c0-0.8,0.1-1.6,0.3-2.3c0.2-0.7,0.6-1.3,1-1.8s1-0.9,1.6-1.2c0.6-0.3,1.4-0.4,2.2-0.4   c0.8,0,1.4,0.1,2,0.4c0.6,0.2,1.1,0.6,1.6,1L72.9,156.2z"/>
	<path class="st0" d="M79.9,154.1c0.8,0,1.5,0.1,2.2,0.4c0.6,0.3,1.2,0.6,1.6,1.1c0.4,0.5,0.8,1.1,1,1.8c0.2,0.7,0.4,1.5,0.4,2.3   c0,0.9-0.1,1.6-0.4,2.3c-0.2,0.7-0.6,1.3-1,1.8c-0.4,0.5-1,0.9-1.6,1.1c-0.6,0.3-1.4,0.4-2.2,0.4s-1.5-0.1-2.2-0.4   c-0.6-0.3-1.2-0.6-1.6-1.1c-0.5-0.5-0.8-1.1-1-1.8c-0.2-0.7-0.4-1.5-0.4-2.3c0-0.9,0.1-1.6,0.4-2.3c0.2-0.7,0.6-1.3,1-1.8   c0.5-0.5,1-0.9,1.6-1.1C78.4,154.2,79.1,154.1,79.9,154.1z M79.9,163.8c1.1,0,1.9-0.4,2.4-1.1c0.5-0.7,0.8-1.7,0.8-3   c0-1.3-0.3-2.3-0.8-3c-0.5-0.7-1.3-1.1-2.4-1.1c-0.5,0-1,0.1-1.4,0.3s-0.7,0.5-1,0.8c-0.3,0.4-0.5,0.8-0.6,1.3s-0.2,1.1-0.2,1.7   c0,0.6,0.1,1.2,0.2,1.7s0.3,0.9,0.6,1.3c0.3,0.3,0.6,0.6,1,0.8C78.9,163.7,79.3,163.8,79.9,163.8z"/>
	<path class="st0" d="M89.6,149.3v15.9h-1.9v-15.9H89.6z"/>
	<path class="st0" d="M97.3,154.1c0.7,0,1.3,0.1,1.8,0.3s1,0.5,1.4,0.9c0.4,0.4,0.7,0.9,0.9,1.5c0.2,0.6,0.3,1.3,0.3,2.1   c0,0.3,0,0.5-0.1,0.6c-0.1,0.1-0.2,0.2-0.4,0.2h-7.3c0,0.7,0.1,1.3,0.3,1.8s0.4,0.9,0.7,1.3s0.7,0.6,1.1,0.8   c0.4,0.2,0.9,0.3,1.4,0.3c0.5,0,0.9-0.1,1.2-0.2s0.6-0.2,0.9-0.4c0.3-0.1,0.5-0.2,0.6-0.4c0.2-0.1,0.3-0.2,0.4-0.2   c0.2,0,0.3,0.1,0.4,0.2l0.5,0.7c-0.2,0.3-0.5,0.5-0.9,0.7s-0.7,0.4-1.1,0.5c-0.4,0.1-0.8,0.2-1.2,0.3c-0.4,0.1-0.8,0.1-1.2,0.1   c-0.8,0-1.4-0.1-2.1-0.4s-1.2-0.6-1.6-1.1c-0.5-0.5-0.8-1.1-1.1-1.8s-0.4-1.6-0.4-2.5c0-0.8,0.1-1.5,0.4-2.1c0.2-0.7,0.6-1.2,1-1.7   c0.4-0.5,1-0.9,1.6-1.1C95.8,154.2,96.5,154.1,97.3,154.1z M97.3,155.5c-0.9,0-1.7,0.3-2.2,0.8c-0.5,0.5-0.9,1.3-1,2.2h5.9   c0-0.4-0.1-0.9-0.2-1.2c-0.1-0.4-0.3-0.7-0.5-1c-0.2-0.3-0.5-0.5-0.9-0.6S97.8,155.5,97.3,155.5z"/>
	<path class="st0" d="M111.7,156.2c-0.1,0.1-0.1,0.1-0.2,0.2s-0.1,0.1-0.2,0.1c-0.1,0-0.2,0-0.3-0.1s-0.3-0.2-0.5-0.3   c-0.2-0.1-0.4-0.2-0.7-0.3c-0.3-0.1-0.6-0.1-1-0.1c-0.5,0-1,0.1-1.4,0.3c-0.4,0.2-0.8,0.5-1,0.8c-0.3,0.4-0.5,0.8-0.6,1.3   c-0.1,0.5-0.2,1.1-0.2,1.7c0,0.7,0.1,1.2,0.2,1.8c0.2,0.5,0.4,0.9,0.6,1.3c0.3,0.3,0.6,0.6,1,0.8c0.4,0.2,0.8,0.3,1.3,0.3   c0.5,0,0.8-0.1,1.2-0.2s0.6-0.2,0.8-0.4c0.2-0.1,0.4-0.3,0.5-0.4s0.3-0.2,0.4-0.2c0.2,0,0.3,0.1,0.4,0.2l0.5,0.7   c-0.5,0.6-1.1,1-1.8,1.3c-0.7,0.3-1.5,0.4-2.3,0.4c-0.7,0-1.3-0.1-1.9-0.4c-0.6-0.3-1.1-0.6-1.5-1.1c-0.4-0.5-0.8-1.1-1-1.8   c-0.2-0.7-0.4-1.5-0.4-2.4c0-0.8,0.1-1.6,0.3-2.3c0.2-0.7,0.6-1.3,1-1.8c0.4-0.5,1-0.9,1.6-1.2c0.6-0.3,1.4-0.4,2.2-0.4   c0.8,0,1.4,0.1,2,0.4c0.6,0.2,1.1,0.6,1.6,1L111.7,156.2z"/>
	<path class="st0" d="M121.7,156.2c-0.1,0.1-0.1,0.1-0.2,0.2c-0.1,0-0.1,0.1-0.2,0.1s-0.2,0-0.3-0.1c-0.1-0.1-0.3-0.2-0.5-0.3   c-0.2-0.1-0.4-0.2-0.7-0.3s-0.6-0.1-1-0.1c-0.5,0-1,0.1-1.4,0.3c-0.4,0.2-0.8,0.5-1,0.8c-0.3,0.4-0.5,0.8-0.6,1.3   c-0.1,0.5-0.2,1.1-0.2,1.7c0,0.7,0.1,1.2,0.2,1.8c0.2,0.5,0.4,0.9,0.6,1.3c0.3,0.3,0.6,0.6,1,0.8c0.4,0.2,0.8,0.3,1.3,0.3   c0.5,0,0.9-0.1,1.2-0.2c0.3-0.1,0.6-0.2,0.8-0.4s0.4-0.3,0.5-0.4c0.1-0.1,0.3-0.2,0.4-0.2c0.2,0,0.3,0.1,0.4,0.2l0.5,0.7   c-0.5,0.6-1.1,1-1.8,1.3c-0.7,0.3-1.5,0.4-2.3,0.4c-0.7,0-1.3-0.1-1.9-0.4c-0.6-0.3-1.1-0.6-1.5-1.1c-0.4-0.5-0.8-1.1-1-1.8   c-0.2-0.7-0.4-1.5-0.4-2.4c0-0.8,0.1-1.6,0.3-2.3c0.2-0.7,0.6-1.3,1-1.8c0.4-0.5,1-0.9,1.6-1.2c0.6-0.3,1.4-0.4,2.2-0.4   c0.8,0,1.4,0.1,2,0.4c0.6,0.2,1.1,0.6,1.6,1L121.7,156.2z"/>
	<path class="st0" d="M126.9,150.8c0,0.2,0,0.4-0.1,0.5c-0.1,0.2-0.2,0.3-0.3,0.4c-0.1,0.1-0.3,0.2-0.4,0.3   c-0.2,0.1-0.3,0.1-0.5,0.1s-0.4,0-0.5-0.1c-0.2-0.1-0.3-0.2-0.4-0.3c-0.1-0.1-0.2-0.3-0.3-0.4c-0.1-0.2-0.1-0.3-0.1-0.5   s0-0.4,0.1-0.5c0.1-0.2,0.2-0.3,0.3-0.4c0.1-0.1,0.3-0.2,0.4-0.3c0.2-0.1,0.3-0.1,0.5-0.1s0.4,0,0.5,0.1c0.2,0.1,0.3,0.2,0.4,0.3   c0.1,0.1,0.2,0.3,0.3,0.4C126.9,150.5,126.9,150.6,126.9,150.8z M126.5,154.3v10.9h-1.9v-10.9H126.5z"/>
	<path class="st0" d="M134.3,154.1c0.8,0,1.5,0.1,2.2,0.4s1.2,0.6,1.6,1.1c0.4,0.5,0.8,1.1,1,1.8c0.2,0.7,0.4,1.5,0.4,2.3   c0,0.9-0.1,1.6-0.4,2.3c-0.2,0.7-0.6,1.3-1,1.8c-0.4,0.5-1,0.9-1.6,1.1s-1.4,0.4-2.2,0.4c-0.8,0-1.5-0.1-2.2-0.4   c-0.6-0.3-1.2-0.6-1.6-1.1c-0.5-0.5-0.8-1.1-1-1.8c-0.2-0.7-0.4-1.5-0.4-2.3c0-0.9,0.1-1.6,0.4-2.3s0.6-1.3,1-1.8   c0.5-0.5,1-0.9,1.6-1.1C132.8,154.2,133.5,154.1,134.3,154.1z M134.3,163.8c1.1,0,1.9-0.4,2.4-1.1c0.5-0.7,0.8-1.7,0.8-3   c0-1.3-0.3-2.3-0.8-3c-0.5-0.7-1.3-1.1-2.4-1.1c-0.5,0-1,0.1-1.4,0.3c-0.4,0.2-0.7,0.5-1,0.8s-0.5,0.8-0.6,1.3s-0.2,1.1-0.2,1.7   c0,0.6,0.1,1.2,0.2,1.7s0.3,0.9,0.6,1.3c0.3,0.3,0.6,0.6,1,0.8C133.3,163.7,133.7,163.8,134.3,163.8z"/>
	<path class="st0" d="M141.8,165.2v-10.9h1.1c0.3,0,0.4,0.1,0.5,0.4l0.2,1.2c0.5-0.5,1-0.9,1.6-1.3s1.3-0.5,2-0.5   c0.6,0,1.1,0.1,1.6,0.3c0.5,0.2,0.8,0.5,1.1,0.8c0.3,0.4,0.5,0.8,0.7,1.3c0.2,0.5,0.2,1.1,0.2,1.7v6.9H149v-6.9   c0-0.8-0.2-1.5-0.6-1.9c-0.4-0.5-1-0.7-1.7-0.7c-0.6,0-1.1,0.1-1.6,0.4c-0.5,0.3-0.9,0.6-1.4,1.1v8H141.8z"/>
	<path class="st0" d="M158.1,154.1c0.7,0,1.3,0.1,1.8,0.3s1,0.5,1.4,0.9c0.4,0.4,0.7,0.9,0.9,1.5c0.2,0.6,0.3,1.3,0.3,2.1   c0,0.3,0,0.5-0.1,0.6s-0.2,0.2-0.4,0.2h-7.3c0,0.7,0.1,1.3,0.3,1.8c0.2,0.5,0.4,0.9,0.7,1.3c0.3,0.3,0.7,0.6,1.1,0.8   s0.9,0.3,1.4,0.3c0.5,0,0.9-0.1,1.2-0.2c0.3-0.1,0.6-0.2,0.9-0.4c0.3-0.1,0.5-0.2,0.6-0.4c0.2-0.1,0.3-0.2,0.4-0.2   c0.2,0,0.3,0.1,0.4,0.2l0.5,0.7c-0.2,0.3-0.5,0.5-0.9,0.7s-0.7,0.4-1.1,0.5c-0.4,0.1-0.8,0.2-1.2,0.3c-0.4,0.1-0.8,0.1-1.2,0.1   c-0.8,0-1.4-0.1-2.1-0.4c-0.6-0.3-1.2-0.6-1.6-1.1c-0.5-0.5-0.8-1.1-1.1-1.8c-0.3-0.7-0.4-1.6-0.4-2.5c0-0.8,0.1-1.5,0.4-2.1   c0.2-0.7,0.6-1.2,1-1.7c0.4-0.5,1-0.9,1.6-1.1C156.6,154.2,157.3,154.1,158.1,154.1z M158.2,155.5c-0.9,0-1.7,0.3-2.2,0.8   c-0.5,0.5-0.9,1.3-1,2.2h5.9c0-0.4-0.1-0.9-0.2-1.2c-0.1-0.4-0.3-0.7-0.5-1c-0.2-0.3-0.5-0.5-0.9-0.6S158.6,155.5,158.2,155.5z"/>
	<path class="st0" d="M171.3,156.1c-0.1,0.2-0.2,0.2-0.4,0.2c-0.1,0-0.2,0-0.4-0.1c-0.1-0.1-0.3-0.2-0.5-0.3   c-0.2-0.1-0.4-0.2-0.7-0.3c-0.3-0.1-0.6-0.1-1-0.1c-0.3,0-0.6,0-0.9,0.1c-0.3,0.1-0.5,0.2-0.7,0.3s-0.3,0.3-0.4,0.5   c-0.1,0.2-0.1,0.4-0.1,0.6c0,0.3,0.1,0.5,0.2,0.7c0.2,0.2,0.4,0.3,0.6,0.5c0.3,0.1,0.6,0.3,0.9,0.4c0.3,0.1,0.7,0.2,1,0.3   s0.7,0.3,1,0.4c0.3,0.1,0.6,0.3,0.9,0.5c0.3,0.2,0.5,0.5,0.6,0.8c0.2,0.3,0.2,0.7,0.2,1.1c0,0.5-0.1,1-0.3,1.4   c-0.2,0.4-0.4,0.8-0.8,1.1c-0.4,0.3-0.8,0.6-1.3,0.7c-0.5,0.2-1.1,0.3-1.8,0.3c-0.8,0-1.5-0.1-2.1-0.4c-0.6-0.2-1.1-0.6-1.6-1   l0.5-0.7c0.1-0.1,0.1-0.2,0.2-0.2c0.1,0,0.2-0.1,0.3-0.1s0.3,0.1,0.4,0.2s0.3,0.2,0.5,0.3c0.2,0.1,0.5,0.2,0.7,0.3s0.7,0.2,1.1,0.2   c0.4,0,0.7,0,1-0.1c0.3-0.1,0.5-0.2,0.7-0.4s0.3-0.4,0.4-0.6s0.1-0.4,0.1-0.7c0-0.3-0.1-0.5-0.2-0.7c-0.2-0.2-0.4-0.4-0.6-0.5   c-0.3-0.1-0.6-0.3-0.9-0.4c-0.3-0.1-0.7-0.2-1-0.3c-0.4-0.1-0.7-0.2-1-0.4s-0.6-0.3-0.9-0.6s-0.5-0.5-0.6-0.8   c-0.2-0.3-0.2-0.7-0.2-1.2c0-0.4,0.1-0.8,0.3-1.2s0.4-0.7,0.8-1c0.3-0.3,0.7-0.5,1.2-0.7c0.5-0.2,1-0.3,1.6-0.3   c0.7,0,1.4,0.1,1.9,0.3c0.6,0.2,1.1,0.5,1.5,0.9L171.3,156.1z"/>
</g>
</svg>