<?xml version="1.0" encoding="UTF-8"?>
<!-- Generator: Adobe Illustrator 16.0.0, SVG Export Plug-In . SVG Version: 6.00 Build 0)  -->
<!DOCTYPE svg PUBLIC "-//W3C//DTD SVG 1.1//EN" "http://www.w3.org/Graphics/SVG/1.1/DTD/svg11.dtd">
<svg version="1.1" id="Capa_1" xmlns="http://www.w3.org/2000/svg" xmlns:xlink="http://www.w3.org/1999/xlink" x="0px" y="0px" width="25px" height="25px" viewBox="0 0 25 25" enable-background="new 0 0 25 25" xml:space="preserve">
<path fill="#FFFFFF" d="M21.673,13.193c0,1.484-0.183,2.97-0.183,2.97s-0.178,1.264-0.729,1.821  c-0.697,0.731-1.479,0.733-1.838,0.775c-2.568,0.187-6.423,0.192-6.423,0.192s-4.77-0.044-6.238-0.183  c-0.408-0.078-1.326-0.054-2.022-0.785c-0.55-0.557-0.729-1.821-0.729-1.821s-0.185-1.485-0.185-2.97v-1.392  c0-1.485,0.185-2.97,0.185-2.97S3.69,7.567,4.24,7.011c0.696-0.732,1.479-0.735,1.838-0.777c2.567-0.186,6.419-0.186,6.419-0.186  h0.006c0,0,3.852,0,6.419,0.186c0.359,0.042,1.141,0.045,1.838,0.777c0.551,0.556,0.729,1.82,0.729,1.82s0.183,1.485,0.183,2.97  V13.193z M10.606,14.879l4.958-2.567l-4.959-2.587L10.606,14.879z"/>
</svg>