<?xml version="1.0" encoding="UTF-8"?>
<!-- Generator: Adobe Illustrator 22.1.0, SVG Export Plug-In . SVG Version: 6.00 Build 0)  -->
<svg version="1.1" id="Capa_1" xmlns="http://www.w3.org/2000/svg" xmlns:xlink="http://www.w3.org/1999/xlink" x="0px" y="0px" viewBox="0 0 200 200" style="enable-background:new 0 0 200 200;" xml:space="preserve">
<style type="text/css">
	.st0{fill:#333333;}
	.st1{enable-background:new    ;}
</style>
<title>icono-fechas</title>
<path class="st0" d="M143.5,21.8h-6.8v-4.7c0-0.7-0.6-1.3-1.3-1.3l0,0h-5.7c-0.7,0-1.3,0.6-1.3,1.3c0,0,0,0,0,0v4.7h-8v-4.7  c0-0.7-0.6-1.3-1.3-1.3h-5.7c-0.7,0-1.3,0.6-1.3,1.3c0,0,0,0,0,0v4.7h-8v-4.7c0-0.7-0.6-1.3-1.3-1.3h-5.6c-0.7,0-1.3,0.6-1.3,1.3  v4.7h-8v-4.7c0-0.7-0.6-1.3-1.3-1.3c0,0,0,0,0,0h-5.6c-0.7,0-1.3,0.6-1.3,1.3v4.7h-8v-4.7c0-0.7-0.6-1.3-1.3-1.3h-5.6  c-0.7,0-1.3,0.6-1.3,1.3v4.7h-6.8c-0.7,0-1.3,0.6-1.3,1.3v30.5c-0.1,0.7,0.5,1.4,1.2,1.4c0.7,0.1,1.4-0.5,1.4-1.2c0-0.1,0-0.2,0-0.2  v-15h84.4v39.8c-0.1,0.7,0.5,1.4,1.2,1.4c0.7,0.1,1.4-0.5,1.4-1.2c0-0.1,0-0.2,0-0.2V23.2C144.9,22.4,144.3,21.8,143.5,21.8z   M131.1,18.5h3v10.1h-3V18.5z M114.8,18.5h3v10.1h-3V18.5z M98.5,18.5h3v10.1h-3V18.5z M82.2,18.5h3v10.1h-3V18.5z M65.9,18.5h3  v10.1h-3V18.5z M57.8,24.5h5.5v5.4c0,0.7,0.6,1.3,1.3,1.3h5.7c0.7,0,1.3-0.6,1.3-1.3v-5.4h8v5.4c0,0.7,0.6,1.3,1.3,1.3h5.7  c0.7,0,1.3-0.6,1.3-1.3v0v-5.4h8v5.4c0,0.7,0.6,1.3,1.3,1.3h5.7c0.7,0,1.3-0.6,1.3-1.3v-5.4h8v5.4c0,0.7,0.6,1.3,1.3,1.3l0,0h5.7  c0.7,0,1.3-0.6,1.3-1.3v-5.4h8v5.4c0,0.7,0.6,1.3,1.3,1.3l0,0h5.7c0.7,0,1.3-0.6,1.3-1.3v-5.4h5.5V36H57.8L57.8,24.5z"/>
<path class="st0" d="M143.5,83.3c-0.7,0-1.3,0.6-1.3,1.3c0,0,0,0,0,0v18.2H57.8v-43c0.1-0.7-0.5-1.4-1.2-1.4  c-0.7-0.1-1.4,0.5-1.4,1.2c0,0.1,0,0.2,0,0.2v44.3c0,0.7,0.6,1.3,1.3,1.3c0,0,0,0,0,0h87.1c0.7,0,1.3-0.6,1.3-1.3c0,0,0,0,0,0V84.6  C144.9,83.9,144.3,83.3,143.5,83.3C143.5,83.3,143.5,83.3,143.5,83.3z"/>
<path class="st0" d="M62.1,51.6h21.2c0.7,0,1.3-0.6,1.3-1.3v-6c0-0.7-0.6-1.3-1.3-1.3H62.1c-0.7,0-1.3,0.6-1.3,1.3c0,0,0,0,0,0v6  C60.8,51,61.4,51.6,62.1,51.6L62.1,51.6z M63.5,45.6H82v3.3H63.5V45.6z"/>
<path class="st0" d="M89.4,51.6h21.2c0.7,0,1.3-0.6,1.3-1.3v-6c0-0.7-0.6-1.3-1.3-1.3H89.4c-0.7,0-1.3,0.6-1.3,1.3v6  C88.1,51,88.6,51.6,89.4,51.6z M90.7,45.6h18.6v3.3H90.7V45.6z"/>
<path class="st0" d="M116.6,51.6h21.2c0.7,0,1.3-0.6,1.3-1.3v0v-6c0-0.7-0.6-1.3-1.3-1.3c0,0,0,0,0,0h-21.2c-0.7,0-1.3,0.6-1.3,1.3  v6C115.3,51,115.9,51.6,116.6,51.6z M118,45.6h18.6v3.3H118L118,45.6z"/>
<path class="st0" d="M62.1,57h21.2c0.7,0.1,1.4-0.5,1.4-1.2c0.1-0.7-0.5-1.4-1.2-1.4c-0.1,0-0.2,0-0.2,0H62.1  c-0.7-0.1-1.4,0.5-1.4,1.2c-0.1,0.7,0.5,1.4,1.2,1.4C62,57,62.1,57,62.1,57z"/>
<path class="st0" d="M62.1,64.3h21.2c0.7,0,1.3-0.6,1.3-1.3c0-0.7-0.6-1.3-1.3-1.3H62.1c-0.7,0-1.3,0.6-1.3,1.3  C60.8,63.7,61.4,64.3,62.1,64.3z"/>
<path class="st0" d="M89.4,57h21.2c0.7-0.1,1.3-0.7,1.2-1.4c-0.1-0.6-0.6-1.2-1.2-1.2H89.4c-0.7,0.1-1.3,0.7-1.2,1.4  C88.2,56.4,88.7,56.9,89.4,57z"/>
<path class="st0" d="M89.4,64.3h21.2c0.7,0,1.3-0.6,1.3-1.3c0-0.7-0.6-1.3-1.3-1.3H89.4c-0.7,0-1.3,0.6-1.3,1.3  C88.1,63.7,88.6,64.3,89.4,64.3z"/>
<path class="st0" d="M116.6,57h21.2c0.7,0.1,1.4-0.5,1.4-1.2c0.1-0.7-0.5-1.4-1.2-1.4c-0.1,0-0.2,0-0.2,0h-21.2  c-0.7-0.1-1.4,0.5-1.4,1.2c-0.1,0.7,0.5,1.4,1.2,1.4C116.5,57,116.6,57,116.6,57z"/>
<path class="st0" d="M116.6,64.3h21.2c0.7,0,1.3-0.6,1.3-1.3c0-0.7-0.6-1.3-1.3-1.3h-21.2c-0.7,0-1.3,0.6-1.3,1.3  C115.3,63.7,115.9,64.3,116.6,64.3z"/>
<path class="st0" d="M60.8,79.6c0,0.7,0.6,1.3,1.3,1.3h0h21.2c0.7,0,1.3-0.6,1.3-1.3v-6c0-0.7-0.6-1.3-1.3-1.3H62.1  c-0.7,0-1.3,0.6-1.3,1.3c0,0,0,0,0,0L60.8,79.6z M63.5,74.9H82v3.4H63.5L63.5,74.9z"/>
<path class="st0" d="M88.1,79.6c0,0.7,0.6,1.3,1.3,1.3h21.2c0.7,0,1.3-0.6,1.3-1.3v-6c0-0.7-0.6-1.3-1.3-1.3H89.4  c-0.7,0-1.3,0.6-1.3,1.3V79.6z M90.7,74.9h18.6v3.4H90.7V74.9z"/>
<path class="st0" d="M115.3,79.6c0,0.7,0.6,1.3,1.3,1.3h21.2c0.7,0,1.3-0.6,1.3-1.3l0,0v-6c0-0.7-0.6-1.3-1.3-1.3c0,0,0,0,0,0h-21.2  c-0.7,0-1.3,0.6-1.3,1.3L115.3,79.6z M118,74.9h18.6v3.4H118V74.9z"/>
<path class="st0" d="M62.1,86.4h21.2c0.7,0.1,1.4-0.5,1.4-1.2c0.1-0.7-0.5-1.4-1.2-1.4c-0.1,0-0.2,0-0.2,0H62.1  c-0.7-0.1-1.4,0.5-1.4,1.2c-0.1,0.7,0.5,1.4,1.2,1.4C62,86.4,62.1,86.4,62.1,86.4z"/>
<path class="st0" d="M62.1,93.7h21.2c0.7,0,1.3-0.6,1.3-1.3S84.1,91,83.4,91H62.1c-0.7,0-1.3,0.6-1.3,1.3S61.4,93.7,62.1,93.7z"/>
<path class="st0" d="M89.4,86.4h21.2c0.7-0.1,1.3-0.7,1.2-1.4c-0.1-0.6-0.6-1.2-1.2-1.2H89.4c-0.7,0.1-1.3,0.7-1.2,1.4  C88.2,85.8,88.7,86.4,89.4,86.4z"/>
<path class="st0" d="M89.4,93.7h21.2c0.7,0,1.3-0.6,1.3-1.3s-0.6-1.3-1.3-1.3l0,0H89.4c-0.7,0-1.3,0.6-1.3,1.3S88.6,93.7,89.4,93.7z  "/>
<path class="st0" d="M116.6,86.4h21.2c0.7,0.1,1.4-0.5,1.4-1.2c0.1-0.7-0.5-1.4-1.2-1.4c-0.1,0-0.2,0-0.2,0h-21.2  c-0.7-0.1-1.4,0.5-1.4,1.2c-0.1,0.7,0.5,1.4,1.2,1.4C116.5,86.4,116.6,86.4,116.6,86.4z"/>
<path class="st0" d="M116.6,93.7h21.2c0.7,0,1.3-0.6,1.3-1.3s-0.6-1.3-1.3-1.3h-21.2c-0.7,0-1.3,0.6-1.3,1.3S115.9,93.7,116.6,93.7z  "/>
<g class="st1">
	<path class="st0" d="M63.6,124c0.1,0,0.2,0.1,0.3,0.3l8.9,11.6c0-0.2,0-0.4,0-0.5c0-0.2,0-0.3,0-0.5v-10.9h1.8v15.4h-1.1   c-0.2,0-0.3,0-0.4-0.1s-0.2-0.2-0.3-0.3l-8.9-11.6c0,0.2,0,0.4,0,0.5c0,0.2,0,0.3,0,0.5v11h-1.8v-15.4h1.1   C63.4,123.9,63.5,123.9,63.6,124z"/>
</g>
<g class="st1">
	<path class="st0" d="M86.1,139.3h-0.9c-0.2,0-0.3,0-0.5-0.1s-0.2-0.2-0.2-0.4l-0.2-1c-0.3,0.3-0.6,0.5-0.8,0.7   c-0.3,0.2-0.6,0.4-0.9,0.5c-0.3,0.1-0.6,0.2-1,0.3c-0.3,0.1-0.7,0.1-1.1,0.1c-0.4,0-0.8-0.1-1.2-0.2c-0.4-0.1-0.7-0.3-1-0.5   c-0.3-0.2-0.5-0.5-0.7-0.9c-0.2-0.4-0.2-0.8-0.2-1.3c0-0.4,0.1-0.8,0.4-1.2c0.2-0.4,0.6-0.8,1.1-1.1s1.2-0.6,2.1-0.8   s1.9-0.3,3.1-0.3v-0.9c0-0.9-0.2-1.5-0.5-1.9c-0.4-0.4-0.9-0.7-1.6-0.7c-0.5,0-0.9,0.1-1.2,0.2s-0.6,0.3-0.8,0.4   c-0.2,0.1-0.4,0.3-0.6,0.4c-0.2,0.1-0.3,0.2-0.5,0.2c-0.1,0-0.2,0-0.3-0.1c-0.1-0.1-0.2-0.2-0.2-0.3l-0.3-0.6   c0.6-0.6,1.3-1,1.9-1.3s1.5-0.4,2.3-0.4c0.6,0,1.2,0.1,1.6,0.3c0.5,0.2,0.9,0.5,1.2,0.8c0.3,0.4,0.6,0.8,0.7,1.3   c0.2,0.5,0.2,1.1,0.2,1.7V139.3z M81.2,138.2c0.3,0,0.6,0,0.9-0.1s0.5-0.2,0.8-0.3c0.2-0.1,0.5-0.3,0.7-0.5   c0.2-0.2,0.4-0.4,0.7-0.6v-2.3c-0.9,0-1.6,0.1-2.2,0.2c-0.6,0.1-1.1,0.3-1.5,0.4c-0.4,0.2-0.7,0.4-0.8,0.6   c-0.2,0.2-0.3,0.5-0.3,0.8c0,0.3,0,0.5,0.1,0.7c0.1,0.2,0.2,0.4,0.4,0.5c0.2,0.1,0.3,0.2,0.6,0.3C80.7,138.1,80.9,138.2,81.2,138.2   z"/>
</g>
<g class="st1">
	<path class="st0" d="M87.3,128.4h1.6c0.2,0,0.3,0,0.4,0.1s0.2,0.2,0.2,0.3l2.8,7c0.1,0.3,0.2,0.5,0.2,0.8c0.1,0.3,0.1,0.5,0.2,0.8   c0.1-0.3,0.1-0.5,0.2-0.8c0.1-0.3,0.1-0.5,0.2-0.8l2.8-7c0-0.1,0.1-0.2,0.2-0.3c0.1-0.1,0.2-0.1,0.4-0.1h1.5l-4.4,10.9h-1.7   L87.3,128.4z"/>
</g>
<g class="st1">
	<path class="st0" d="M103.7,128.3c0.7,0,1.3,0.1,1.8,0.3s1,0.5,1.4,0.9c0.4,0.4,0.7,0.9,0.9,1.5c0.2,0.6,0.3,1.3,0.3,2.1   c0,0.3,0,0.5-0.1,0.6s-0.2,0.2-0.4,0.2h-7.3c0,0.7,0.1,1.3,0.3,1.8c0.2,0.5,0.4,0.9,0.7,1.3c0.3,0.3,0.7,0.6,1.1,0.8   s0.9,0.3,1.4,0.3c0.5,0,0.9-0.1,1.2-0.2c0.3-0.1,0.6-0.2,0.9-0.4c0.3-0.1,0.5-0.2,0.6-0.4c0.2-0.1,0.3-0.2,0.4-0.2   c0.2,0,0.3,0.1,0.4,0.2l0.5,0.7c-0.2,0.3-0.5,0.5-0.9,0.7s-0.7,0.4-1.1,0.5c-0.4,0.1-0.8,0.2-1.2,0.3c-0.4,0.1-0.8,0.1-1.2,0.1   c-0.8,0-1.4-0.1-2.1-0.4c-0.6-0.3-1.2-0.6-1.6-1.1c-0.5-0.5-0.8-1.1-1.1-1.8s-0.4-1.6-0.4-2.5c0-0.8,0.1-1.5,0.4-2.1   c0.2-0.7,0.6-1.2,1-1.7c0.4-0.5,1-0.9,1.6-1.1C102.2,128.4,103,128.3,103.7,128.3z M103.8,129.7c-0.9,0-1.7,0.3-2.2,0.8   c-0.5,0.5-0.9,1.3-1,2.2h5.9c0-0.4-0.1-0.9-0.2-1.2c-0.1-0.4-0.3-0.7-0.5-1c-0.2-0.3-0.5-0.5-0.9-0.6S104.2,129.7,103.8,129.7z"/>
	<path class="st0" d="M114.4,128.2c0.5,0,0.9,0.1,1.3,0.2c0.4,0.1,0.8,0.3,1.1,0.5h3v0.7c0,0.2-0.2,0.4-0.5,0.5l-1.2,0.2   c0.2,0.5,0.4,1,0.4,1.6c0,0.5-0.1,1-0.3,1.4c-0.2,0.4-0.5,0.8-0.9,1.1s-0.8,0.5-1.3,0.7s-1,0.2-1.6,0.2c-0.5,0-1-0.1-1.4-0.2   c-0.2,0.1-0.4,0.3-0.5,0.5c-0.1,0.2-0.2,0.3-0.2,0.5c0,0.3,0.1,0.5,0.3,0.6c0.2,0.1,0.5,0.2,0.8,0.3s0.7,0.1,1.2,0.1   c0.4,0,0.9,0,1.3,0s0.9,0,1.3,0.1s0.8,0.2,1.2,0.4s0.6,0.4,0.8,0.8c0.2,0.3,0.3,0.7,0.3,1.2c0,0.5-0.1,0.9-0.3,1.4   c-0.2,0.4-0.6,0.8-1,1.2c-0.4,0.3-1,0.6-1.6,0.8c-0.6,0.2-1.3,0.3-2.1,0.3c-0.8,0-1.5-0.1-2.1-0.2c-0.6-0.2-1.1-0.4-1.5-0.6   c-0.4-0.3-0.7-0.6-0.9-0.9s-0.3-0.7-0.3-1.1c0-0.5,0.2-1,0.5-1.4c0.3-0.4,0.8-0.7,1.4-0.9c-0.3-0.1-0.6-0.3-0.7-0.6s-0.3-0.6-0.3-1   c0-0.2,0-0.3,0.1-0.5c0.1-0.2,0.1-0.3,0.3-0.5c0.1-0.2,0.3-0.3,0.4-0.5c0.2-0.2,0.4-0.3,0.6-0.4c-0.5-0.3-1-0.7-1.3-1.2   c-0.3-0.5-0.5-1.1-0.5-1.7c0-0.5,0.1-1,0.3-1.4c0.2-0.4,0.5-0.8,0.9-1.1c0.4-0.3,0.8-0.5,1.3-0.7   C113.2,128.3,113.8,128.2,114.4,128.2z M117.8,139.9c0-0.3-0.1-0.5-0.2-0.7s-0.4-0.3-0.6-0.4c-0.3-0.1-0.6-0.2-0.9-0.2   c-0.3,0-0.7-0.1-1.1-0.1s-0.8,0-1.1,0s-0.8,0-1.1-0.1c-0.4,0.2-0.7,0.4-1,0.7s-0.4,0.6-0.4,1c0,0.2,0.1,0.5,0.2,0.7   c0.1,0.2,0.3,0.4,0.6,0.5c0.3,0.2,0.6,0.3,1,0.4c0.4,0.1,0.9,0.1,1.4,0.1c0.5,0,1,0,1.4-0.1c0.4-0.1,0.8-0.2,1-0.4s0.5-0.4,0.7-0.6   C117.7,140.4,117.8,140.2,117.8,139.9z M114.4,134c0.4,0,0.7-0.1,1-0.2s0.5-0.3,0.7-0.5c0.2-0.2,0.4-0.4,0.5-0.7   c0.1-0.3,0.2-0.6,0.2-0.9c0-0.7-0.2-1.2-0.6-1.6c-0.4-0.4-1-0.6-1.8-0.6c-0.8,0-1.4,0.2-1.8,0.6s-0.6,0.9-0.6,1.6   c0,0.3,0.1,0.6,0.2,0.9c0.1,0.3,0.3,0.5,0.5,0.7c0.2,0.2,0.4,0.3,0.7,0.5S114,134,114.4,134z"/>
	<path class="st0" d="M129.7,139.3h-0.9c-0.2,0-0.3,0-0.5-0.1c-0.1-0.1-0.2-0.2-0.2-0.4l-0.2-1c-0.3,0.3-0.6,0.5-0.8,0.7   c-0.3,0.2-0.6,0.4-0.9,0.5s-0.6,0.2-1,0.3c-0.3,0.1-0.7,0.1-1.1,0.1c-0.4,0-0.8-0.1-1.2-0.2c-0.4-0.1-0.7-0.3-1-0.5   c-0.3-0.2-0.5-0.5-0.7-0.9c-0.2-0.4-0.2-0.8-0.2-1.3c0-0.4,0.1-0.8,0.4-1.2c0.2-0.4,0.6-0.8,1.1-1.1s1.2-0.6,2.1-0.8   c0.9-0.2,1.9-0.3,3.1-0.3v-0.9c0-0.9-0.2-1.5-0.5-1.9c-0.4-0.4-0.9-0.7-1.6-0.7c-0.5,0-0.9,0.1-1.2,0.2s-0.6,0.3-0.8,0.4   s-0.4,0.3-0.6,0.4c-0.2,0.1-0.3,0.2-0.5,0.2c-0.1,0-0.2,0-0.3-0.1s-0.2-0.2-0.2-0.3l-0.3-0.6c0.6-0.6,1.3-1,1.9-1.3   s1.5-0.4,2.3-0.4c0.6,0,1.2,0.1,1.6,0.3c0.5,0.2,0.9,0.5,1.2,0.8c0.3,0.4,0.6,0.8,0.7,1.3c0.2,0.5,0.2,1.1,0.2,1.7V139.3z    M124.8,138.2c0.3,0,0.6,0,0.9-0.1c0.3-0.1,0.5-0.2,0.8-0.3c0.2-0.1,0.5-0.3,0.7-0.5c0.2-0.2,0.4-0.4,0.7-0.6v-2.3   c-0.9,0-1.6,0.1-2.2,0.2c-0.6,0.1-1.1,0.3-1.5,0.4c-0.4,0.2-0.7,0.4-0.8,0.6c-0.2,0.2-0.3,0.5-0.3,0.8c0,0.3,0,0.5,0.1,0.7   c0.1,0.2,0.2,0.4,0.4,0.5s0.3,0.2,0.6,0.3C124.3,138.1,124.5,138.2,124.8,138.2z"/>
	<path class="st0" d="M132.6,139.3v-10.9h1.1c0.2,0,0.4,0,0.4,0.1c0.1,0.1,0.1,0.2,0.2,0.4l0.1,1.7c0.4-0.8,0.8-1.4,1.4-1.8   c0.5-0.4,1.2-0.6,1.9-0.6c0.3,0,0.6,0,0.8,0.1s0.5,0.2,0.7,0.3l-0.2,1.4c0,0.2-0.2,0.3-0.3,0.3c-0.1,0-0.3,0-0.5-0.1   s-0.5-0.1-0.9-0.1c-0.7,0-1.2,0.2-1.7,0.6s-0.8,1-1.1,1.7v6.9H132.6z"/>
</g>
<g class="st1">
	<path class="st0" d="M52.8,168.9v-14.6H54c0.3,0,0.4,0.1,0.5,0.4l0.2,1.3c0.5-0.6,1-1,1.6-1.4c0.6-0.3,1.3-0.5,2.1-0.5   c0.6,0,1.2,0.1,1.7,0.4c0.5,0.2,0.9,0.6,1.3,1.1c0.4,0.5,0.6,1.1,0.8,1.7s0.3,1.5,0.3,2.4c0,0.8-0.1,1.6-0.3,2.2   c-0.2,0.7-0.5,1.3-0.9,1.8s-0.9,0.9-1.5,1.2c-0.6,0.3-1.2,0.4-2,0.4c-0.7,0-1.3-0.1-1.7-0.3c-0.5-0.2-0.9-0.5-1.3-0.9v4.8H52.8z    M57.7,155.6c-0.6,0-1.2,0.1-1.6,0.4c-0.5,0.3-0.9,0.7-1.3,1.2v5.3c0.4,0.5,0.7,0.8,1.2,1c0.4,0.2,0.9,0.3,1.4,0.3   c1,0,1.8-0.4,2.3-1.1s0.8-1.8,0.8-3.1c0-0.7-0.1-1.3-0.2-1.8s-0.3-0.9-0.5-1.3s-0.5-0.6-0.9-0.7C58.5,155.7,58.1,155.6,57.7,155.6z   "/>
	<path class="st0" d="M69.1,154.1c0.8,0,1.5,0.1,2.2,0.4c0.6,0.3,1.2,0.6,1.6,1.1c0.4,0.5,0.8,1.1,1,1.8c0.2,0.7,0.4,1.5,0.4,2.3   c0,0.9-0.1,1.6-0.4,2.3c-0.2,0.7-0.6,1.3-1,1.8c-0.4,0.5-1,0.9-1.6,1.1c-0.6,0.3-1.4,0.4-2.2,0.4s-1.5-0.1-2.2-0.4   c-0.6-0.3-1.2-0.6-1.6-1.1c-0.5-0.5-0.8-1.1-1-1.8c-0.2-0.7-0.4-1.5-0.4-2.3c0-0.9,0.1-1.6,0.4-2.3c0.2-0.7,0.6-1.3,1-1.8   c0.5-0.5,1-0.9,1.6-1.1C67.6,154.2,68.3,154.1,69.1,154.1z M69.1,163.8c1.1,0,1.9-0.4,2.4-1.1c0.5-0.7,0.8-1.7,0.8-3   c0-1.3-0.3-2.3-0.8-3c-0.5-0.7-1.3-1.1-2.4-1.1c-0.5,0-1,0.1-1.4,0.3s-0.7,0.5-1,0.8c-0.3,0.4-0.5,0.8-0.6,1.3s-0.2,1.1-0.2,1.7   c0,0.6,0.1,1.2,0.2,1.7s0.3,0.9,0.6,1.3c0.3,0.3,0.6,0.6,1,0.8C68.1,163.7,68.6,163.8,69.1,163.8z"/>
	<path class="st0" d="M76.7,165.2v-10.9h1.1c0.2,0,0.4,0,0.4,0.1c0.1,0.1,0.1,0.2,0.2,0.4l0.1,1.7c0.4-0.8,0.8-1.4,1.4-1.8   c0.5-0.4,1.2-0.6,1.9-0.6c0.3,0,0.6,0,0.8,0.1c0.2,0.1,0.5,0.2,0.7,0.3l-0.2,1.4c-0.1,0.2-0.2,0.3-0.3,0.3c-0.1,0-0.3,0-0.5-0.1   s-0.5-0.1-0.9-0.1c-0.7,0-1.2,0.2-1.7,0.6c-0.4,0.4-0.8,1-1.1,1.7v6.9H76.7z"/>
	<path class="st0" d="M89.9,165.2v-9.3l-1.2-0.1c-0.2,0-0.3-0.1-0.4-0.2c-0.1-0.1-0.1-0.2-0.1-0.3v-0.8h1.7v-1.1   c0-0.6,0.1-1.2,0.3-1.7s0.4-0.9,0.8-1.2c0.3-0.3,0.7-0.6,1.2-0.8c0.5-0.2,1-0.3,1.6-0.3c0.5,0,0.9,0.1,1.4,0.2l0,1   c0,0.1-0.1,0.2-0.2,0.3c-0.1,0-0.3,0-0.5,0H94c-0.3,0-0.6,0-0.9,0.1c-0.3,0.1-0.5,0.2-0.7,0.4c-0.2,0.2-0.3,0.4-0.4,0.8   c-0.1,0.3-0.2,0.7-0.2,1.2v1H95v1.4h-3.1v9.3H89.9z"/>
	<path class="st0" d="M101.1,154.1c0.7,0,1.3,0.1,1.8,0.3s1,0.5,1.4,0.9c0.4,0.4,0.7,0.9,0.9,1.5s0.3,1.3,0.3,2.1   c0,0.3,0,0.5-0.1,0.6c-0.1,0.1-0.2,0.2-0.4,0.2h-7.3c0,0.7,0.1,1.3,0.3,1.8s0.4,0.9,0.7,1.3s0.7,0.6,1.1,0.8   c0.4,0.2,0.9,0.3,1.4,0.3c0.5,0,0.9-0.1,1.2-0.2s0.6-0.2,0.9-0.4c0.3-0.1,0.5-0.2,0.6-0.4c0.2-0.1,0.3-0.2,0.4-0.2   c0.2,0,0.3,0.1,0.4,0.2l0.5,0.7c-0.2,0.3-0.5,0.5-0.9,0.7s-0.7,0.4-1.1,0.5c-0.4,0.1-0.8,0.2-1.2,0.3c-0.4,0.1-0.8,0.1-1.2,0.1   c-0.8,0-1.4-0.1-2.1-0.4s-1.2-0.6-1.6-1.1c-0.5-0.5-0.8-1.1-1.1-1.8s-0.4-1.6-0.4-2.5c0-0.8,0.1-1.5,0.4-2.1c0.2-0.7,0.6-1.2,1-1.7   c0.4-0.5,1-0.9,1.6-1.1C99.6,154.2,100.3,154.1,101.1,154.1z M101.1,155.5c-0.9,0-1.7,0.3-2.2,0.8c-0.5,0.5-0.9,1.3-1,2.2h5.9   c0-0.4-0.1-0.9-0.2-1.2c-0.1-0.4-0.3-0.7-0.5-1c-0.2-0.3-0.5-0.5-0.9-0.6C102,155.6,101.6,155.5,101.1,155.5z"/>
	<path class="st0" d="M115.5,156.2c-0.1,0.1-0.1,0.1-0.2,0.2s-0.1,0.1-0.2,0.1s-0.2,0-0.3-0.1c-0.1-0.1-0.3-0.2-0.5-0.3   s-0.4-0.2-0.7-0.3s-0.6-0.1-1-0.1c-0.5,0-1,0.1-1.4,0.3c-0.4,0.2-0.8,0.5-1,0.8c-0.3,0.4-0.5,0.8-0.6,1.3c-0.1,0.5-0.2,1.1-0.2,1.7   c0,0.7,0.1,1.2,0.2,1.8c0.2,0.5,0.4,0.9,0.6,1.3c0.3,0.3,0.6,0.6,1,0.8c0.4,0.2,0.8,0.3,1.3,0.3c0.5,0,0.8-0.1,1.2-0.2   c0.3-0.1,0.6-0.2,0.8-0.4c0.2-0.1,0.4-0.3,0.5-0.4s0.3-0.2,0.4-0.2c0.2,0,0.3,0.1,0.4,0.2l0.5,0.7c-0.5,0.6-1.1,1-1.8,1.3   s-1.5,0.4-2.3,0.4c-0.7,0-1.3-0.1-1.9-0.4c-0.6-0.3-1.1-0.6-1.5-1.1c-0.4-0.5-0.8-1.1-1-1.8c-0.2-0.7-0.4-1.5-0.4-2.4   c0-0.8,0.1-1.6,0.3-2.3c0.2-0.7,0.6-1.3,1-1.8s1-0.9,1.6-1.2c0.6-0.3,1.4-0.4,2.2-0.4c0.8,0,1.4,0.1,2,0.4c0.6,0.2,1.1,0.6,1.6,1   L115.5,156.2z"/>
	<path class="st0" d="M118.1,165.2v-15.9h1.9v6.4c0.5-0.5,1-0.9,1.6-1.2c0.6-0.3,1.2-0.4,2-0.4c0.6,0,1.1,0.1,1.6,0.3   c0.5,0.2,0.8,0.5,1.1,0.8s0.5,0.8,0.7,1.3c0.2,0.5,0.2,1.1,0.2,1.7v6.9h-1.9v-6.9c0-0.8-0.2-1.5-0.6-1.9c-0.4-0.5-1-0.7-1.7-0.7   c-0.6,0-1.1,0.1-1.6,0.4c-0.5,0.3-0.9,0.6-1.4,1.1v8H118.1z"/>
	<path class="st0" d="M138.1,165.2h-0.9c-0.2,0-0.3,0-0.5-0.1c-0.1-0.1-0.2-0.2-0.2-0.4l-0.2-1c-0.3,0.3-0.6,0.5-0.8,0.7   c-0.3,0.2-0.6,0.4-0.9,0.5c-0.3,0.1-0.6,0.2-1,0.3c-0.3,0.1-0.7,0.1-1.1,0.1c-0.4,0-0.8-0.1-1.2-0.2c-0.4-0.1-0.7-0.3-1-0.5   c-0.3-0.2-0.5-0.5-0.7-0.9c-0.2-0.4-0.2-0.8-0.2-1.3c0-0.4,0.1-0.8,0.4-1.2c0.2-0.4,0.6-0.8,1.1-1.1s1.2-0.6,2.1-0.8   c0.9-0.2,1.9-0.3,3.1-0.3v-0.9c0-0.9-0.2-1.5-0.5-1.9c-0.4-0.4-0.9-0.7-1.6-0.7c-0.5,0-0.9,0.1-1.2,0.2c-0.3,0.1-0.6,0.3-0.8,0.4   c-0.2,0.1-0.4,0.3-0.6,0.4c-0.2,0.1-0.3,0.2-0.5,0.2c-0.1,0-0.2,0-0.3-0.1c-0.1-0.1-0.2-0.2-0.2-0.3l-0.3-0.6   c0.6-0.6,1.3-1,1.9-1.3s1.5-0.4,2.3-0.4c0.6,0,1.2,0.1,1.6,0.3c0.5,0.2,0.9,0.5,1.2,0.8c0.3,0.4,0.6,0.8,0.7,1.3   c0.2,0.5,0.2,1.1,0.2,1.7V165.2z M133.1,164c0.3,0,0.6,0,0.9-0.1c0.3-0.1,0.5-0.2,0.8-0.3c0.2-0.1,0.5-0.3,0.7-0.5   c0.2-0.2,0.4-0.4,0.7-0.6v-2.3c-0.9,0-1.6,0.1-2.3,0.2c-0.6,0.1-1.1,0.3-1.5,0.4c-0.4,0.2-0.7,0.4-0.8,0.6   c-0.2,0.2-0.3,0.5-0.3,0.8c0,0.3,0,0.5,0.1,0.7c0.1,0.2,0.2,0.4,0.4,0.5c0.2,0.1,0.3,0.2,0.6,0.3C132.6,164,132.9,164,133.1,164z"/>
	<path class="st0" d="M147.2,156.1c-0.1,0.2-0.2,0.2-0.4,0.2c-0.1,0-0.2,0-0.4-0.1c-0.1-0.1-0.3-0.2-0.5-0.3   c-0.2-0.1-0.4-0.2-0.7-0.3c-0.3-0.1-0.6-0.1-1-0.1c-0.3,0-0.6,0-0.9,0.1c-0.3,0.1-0.5,0.2-0.7,0.3s-0.3,0.3-0.4,0.5   c-0.1,0.2-0.1,0.4-0.1,0.6c0,0.3,0.1,0.5,0.2,0.7s0.4,0.3,0.6,0.5c0.3,0.1,0.6,0.3,0.9,0.4c0.3,0.1,0.7,0.2,1,0.3s0.7,0.3,1,0.4   c0.3,0.1,0.6,0.3,0.9,0.5c0.3,0.2,0.5,0.5,0.6,0.8c0.2,0.3,0.2,0.7,0.2,1.1c0,0.5-0.1,1-0.3,1.4c-0.2,0.4-0.4,0.8-0.8,1.1   c-0.4,0.3-0.8,0.6-1.3,0.7c-0.5,0.2-1.1,0.3-1.8,0.3c-0.8,0-1.5-0.1-2.1-0.4c-0.6-0.2-1.1-0.6-1.6-1l0.5-0.7   c0.1-0.1,0.1-0.2,0.2-0.2c0.1,0,0.2-0.1,0.3-0.1s0.3,0.1,0.4,0.2c0.1,0.1,0.3,0.2,0.5,0.3s0.5,0.2,0.7,0.3s0.7,0.2,1.1,0.2   c0.4,0,0.7,0,1-0.1c0.3-0.1,0.5-0.2,0.7-0.4s0.3-0.4,0.4-0.6s0.1-0.4,0.1-0.7c0-0.3-0.1-0.5-0.2-0.7c-0.2-0.2-0.4-0.4-0.6-0.5   c-0.3-0.1-0.6-0.3-0.9-0.4c-0.3-0.1-0.7-0.2-1-0.3c-0.4-0.1-0.7-0.2-1-0.4c-0.3-0.1-0.6-0.3-0.9-0.6s-0.5-0.5-0.6-0.8   s-0.2-0.7-0.2-1.2c0-0.4,0.1-0.8,0.3-1.2s0.4-0.7,0.8-1c0.3-0.3,0.7-0.5,1.2-0.7c0.5-0.2,1-0.3,1.6-0.3c0.7,0,1.4,0.1,1.9,0.3   c0.6,0.2,1.1,0.5,1.5,0.9L147.2,156.1z"/>
</g>
</svg>