<?xml version="1.0" encoding="UTF-8"?>
<!-- Generator: Adobe Illustrator 16.0.0, SVG Export Plug-In . SVG Version: 6.00 Build 0)  -->
<!DOCTYPE svg PUBLIC "-//W3C//DTD SVG 1.1//EN" "http://www.w3.org/Graphics/SVG/1.1/DTD/svg11.dtd">
<svg version="1.1" id="Capa_1" xmlns="http://www.w3.org/2000/svg" xmlns:xlink="http://www.w3.org/1999/xlink" x="0px" y="0px" width="32px" height="32px" viewBox="0 0 32 32" enable-background="new 0 0 32 32" xml:space="preserve">
<path d="M15.658,24.748c-1.157-0.377-2.064-1.132-2.721-2.266c-0.646-1.096-0.895-2.252-0.75-3.469  c0.171-1.328,0.78-2.397,1.826-3.214c0.842-0.658,1.796-1.017,2.867-1.079c1.013-0.047,1.961,0.178,2.851,0.676  c0.914,0.511,1.602,1.219,2.063,2.119c0.499,0.975,0.664,2.047,0.492,3.215c-0.036,0.23-0.126,0.519-0.272,0.857  c-0.195,0.415-0.324,0.719-0.384,0.915c1.095,0.949,1.966,1.692,2.611,2.228c0.122,0.108,0.353,0.279,0.694,0.512  c0.328,0.242,0.582,0.438,0.767,0.584c0.584,0.486,0.907,0.961,0.967,1.424c0.073,0.584-0.06,1.084-0.399,1.498  c-0.343,0.426-0.799,0.639-1.371,0.639c-0.769,0-1.693-0.771-2.777-2.318c-1.193-1.705-1.973-2.637-2.336-2.795  C18.325,25.003,16.948,25.162,15.658,24.748z M6.544,14.978c0.037-4.177,0.042-7.531,0.017-10.063  c0.854-0.085,2.278-0.237,4.274-0.456c1.936-0.219,3.428-0.377,4.476-0.476c0.596-0.06,1.625-0.188,3.085-0.383  c1.316-0.182,2.326-0.298,3.033-0.346c2.252-0.171,4,0.073,5.24,0.729c-0.475,7.123-0.975,13.789-1.497,20  c-0.974-0.633-1.718-1.248-2.229-1.844c0.744-2.144,0.529-4.086-0.639-5.827c-1.133-1.692-2.721-2.575-4.768-2.648  c-1.837-0.072-3.39,0.518-4.657,1.771c-1.253,1.217-1.868,2.704-1.844,4.458c0.023,2.129,0.857,3.78,2.502,4.948  c1.716,1.242,3.731,1.486,6.045,0.731c0.499,1.07,0.81,1.539,0.931,1.404c-0.815,0.146-2.843,0.537-6.082,1.17  c-2.483,0.486-4.517,0.871-6.1,1.151c-0.317-0.415-0.445-1.284-0.384-2.612c0.134-2.629,0.195-6.052,0.182-10.266  C8.121,10.99,8.126,7.587,8.151,6.211c8.852-1.035,13.102-1.528,12.748-1.479c2.521-0.305,3.916-0.524,4.182-0.658  c-0.512-0.377-1.198-0.542-2.063-0.493c-0.281,0.025-0.651,0.073-1.115,0.146c-0.572,0.085-0.938,0.14-1.098,0.164  c-0.937,0.11-3.269,0.348-6.994,0.713c-2.849,0.28-5.107,0.535-6.774,0.766c-0.024,1.17-0.018,4.884,0.019,11.141  c0.024,4.554-0.048,8.195-0.22,10.923c-0.242-0.244-0.377-0.61-0.401-1.097c-0.013-0.157-0.006-0.366,0.017-0.622  c0.013-0.304,0.019-0.504,0.019-0.604C6.471,23.323,6.496,19.945,6.544,14.978z M17.355,16.548  c-0.705-0.037-1.363,0.128-1.973,0.494c-0.607,0.365-1.034,0.851-1.278,1.46c-0.244,0.598-0.292,1.241-0.145,1.938  c0.145,0.656,0.444,1.242,0.895,1.752c0.473,0.523,1.034,0.857,1.679,1.004c0.719,0.158,1.461,0.05,2.229-0.328  c0.668-0.316,1.174-0.803,1.514-1.461c0.464-0.864,0.482-1.832,0.057-2.904C19.848,17.285,18.854,16.633,17.355,16.548z"/>
</svg>