<?xml version="1.0" encoding="UTF-8"?>
<!-- Generator: Adobe Illustrator 16.0.0, SVG Export Plug-In . SVG Version: 6.00 Build 0)  -->
<!DOCTYPE svg PUBLIC "-//W3C//DTD SVG 1.1//EN" "http://www.w3.org/Graphics/SVG/1.1/DTD/svg11.dtd">
<svg version="1.1" id="Capa_1" xmlns="http://www.w3.org/2000/svg" xmlns:xlink="http://www.w3.org/1999/xlink" x="0px" y="0px" width="32px" height="32px" viewBox="0 0 32 32" enable-background="new 0 0 32 32" xml:space="preserve">
<g id="PathID_53_1_" transform="matrix(0.60512, 0, 0, 0.60512, 88.7, 461.35)">
	<path d="M-103.79-752.751v33.52c0,2.676-1.314,4.012-3.941,4.012h-24.793c-1.273,0-2.255-0.352-2.945-1.063   c-0.683-0.692-1.024-1.674-1.024-2.948v-33.52c0-1.29,0.341-2.282,1.024-2.974c0.692-0.664,1.674-0.997,2.945-0.997h24.793   C-105.104-756.721-103.79-755.398-103.79-752.751 M-112.505-748.891c0.407-0.407,0.608-0.835,0.608-1.287   c0-0.442-0.202-0.917-0.608-1.425c-0.36-0.378-0.81-0.566-1.356-0.566c-0.573,0-1.046,0.19-1.423,0.566   c-0.326,0.351-0.487,0.825-0.487,1.425c0,0.609,0.161,1.038,0.487,1.287c0.423,0.378,0.897,0.566,1.423,0.566   C-113.354-748.324-112.902-748.513-112.505-748.891 M-125.357-748.891c0.396-0.453,0.596-0.881,0.596-1.287   c0-0.378-0.198-0.854-0.596-1.425c-0.386-0.378-0.867-0.566-1.439-0.566c-0.526,0-0.978,0.19-1.356,0.566   c-0.324,0.351-0.485,0.825-0.485,1.425c0,0.609,0.161,1.038,0.485,1.287c0.424,0.378,0.875,0.566,1.356,0.566   C-126.288-748.324-125.808-748.513-125.357-748.891 M-132.524-717.223h3.1l-5.079-5.064v3.057   C-134.502-717.892-133.842-717.223-132.524-717.223 M-128.248-721.016c0-1.659-0.831-2.489-2.491-2.489h-3.417l5.907,6.074   V-721.016 M-127.279-717.223h19.548c1.328,0,1.991-0.668,1.991-2.008v-24.817h-28.763v19.575h3.763   c2.305,0,3.458,1.152,3.458,3.457v3.793"/>
</g>
</svg>